<?xml version="1.0" encoding="UTF-8" standalone="no"?>
<!DOCTYPE svg PUBLIC "-//W3C//DTD SVG 1.1//EN"
 "http://www.w3.org/Graphics/SVG/1.1/DTD/svg11.dtd">
<!-- Generated by graphviz version 2.42.3 (20191010.1750)
 -->
<!-- Title: snakemake_dag Pages: 1 -->
<svg width="1681pt" height="812pt"
 viewBox="0.00 0.00 1680.75 812.00" xmlns="http://www.w3.org/2000/svg" xmlns:xlink="http://www.w3.org/1999/xlink">
<g id="graph0" class="graph" transform="scale(1 1) rotate(0) translate(4 808)">
<title>snakemake_dag</title>
<polygon fill="white" stroke="transparent" points="-4,4 -4,-808 1676.75,-808 1676.75,4 -4,4"/>
<!-- 0 -->
<g id="node1" class="node">
<title>0</title>
<path fill="none" stroke="#56d8c9" stroke-width="2" d="M836.5,-36C836.5,-36 806.5,-36 806.5,-36 800.5,-36 794.5,-30 794.5,-24 794.5,-24 794.5,-12 794.5,-12 794.5,-6 800.5,0 806.5,0 806.5,0 836.5,0 836.5,0 842.5,0 848.5,-6 848.5,-12 848.5,-12 848.5,-24 848.5,-24 848.5,-30 842.5,-36 836.5,-36"/>
<text text-anchor="middle" x="821.5" y="-15.5" font-family="sans" font-size="10.00">all</text>
</g>
<!-- 1 -->
<g id="node2" class="node">
<title>1</title>
<path fill="none" stroke="#d8c356" stroke-width="2" d="M676,-108C676,-108 627,-108 627,-108 621,-108 615,-102 615,-96 615,-96 615,-84 615,-84 615,-78 621,-72 627,-72 627,-72 676,-72 676,-72 682,-72 688,-78 688,-84 688,-84 688,-96 688,-96 688,-102 682,-108 676,-108"/>
<text text-anchor="middle" x="651.5" y="-87.5" font-family="sans" font-size="10.00">peak_count</text>
</g>
<!-- 1&#45;&gt;0 -->
<g id="edge1" class="edge">
<title>1&#45;&gt;0</title>
<path fill="none" stroke="grey" stroke-width="2" d="M688.39,-73.81C716.95,-62.05 756.33,-45.84 784.83,-34.1"/>
<polygon fill="grey" stroke="grey" stroke-width="2" points="786.52,-37.19 794.43,-30.15 783.85,-30.72 786.52,-37.19"/>
</g>
<!-- 2 -->
<g id="node3" class="node">
<title>2</title>
<path fill="none" stroke="#c6d856" stroke-width="2" d="M611.5,-196C611.5,-196 505.5,-196 505.5,-196 499.5,-196 493.5,-190 493.5,-184 493.5,-184 493.5,-156 493.5,-156 493.5,-150 499.5,-144 505.5,-144 505.5,-144 611.5,-144 611.5,-144 617.5,-144 623.5,-150 623.5,-156 623.5,-156 623.5,-184 623.5,-184 623.5,-190 617.5,-196 611.5,-196"/>
<text text-anchor="middle" x="558.5" y="-184" font-family="sans" font-size="10.00">index_merged</text>
<text text-anchor="middle" x="558.5" y="-173" font-family="sans" font-size="10.00">output: scGET_sample</text>
<text text-anchor="middle" x="558.5" y="-162" font-family="sans" font-size="10.00">sample: scGET_sample</text>
<text text-anchor="middle" x="558.5" y="-151" font-family="sans" font-size="10.00">tn: tn5</text>
</g>
<!-- 2&#45;&gt;1 -->
<g id="edge3" class="edge">
<title>2&#45;&gt;1</title>
<path fill="none" stroke="grey" stroke-width="2" d="M588.44,-143.89C599.63,-134.5 612.3,-123.88 623.33,-114.63"/>
<polygon fill="grey" stroke="grey" stroke-width="2" points="625.62,-117.28 631.03,-108.17 621.12,-111.91 625.62,-117.28"/>
</g>
<!-- 3 -->
<g id="node4" class="node">
<title>3</title>
<path fill="none" stroke="#9fd856" stroke-width="2" d="M594.5,-268C594.5,-268 522.5,-268 522.5,-268 516.5,-268 510.5,-262 510.5,-256 510.5,-256 510.5,-244 510.5,-244 510.5,-238 516.5,-232 522.5,-232 522.5,-232 594.5,-232 594.5,-232 600.5,-232 606.5,-238 606.5,-244 606.5,-244 606.5,-256 606.5,-256 606.5,-262 600.5,-268 594.5,-268"/>
<text text-anchor="middle" x="558.5" y="-247.5" font-family="sans" font-size="10.00">merge_bam_tn5</text>
</g>
<!-- 3&#45;&gt;1 -->
<g id="edge4" class="edge">
<title>3&#45;&gt;1</title>
<path fill="none" stroke="grey" stroke-width="2" d="M593.04,-231.99C607.42,-223.18 622.95,-211.09 632.5,-196 647.31,-172.59 651.3,-140.71 652.06,-118.23"/>
<polygon fill="grey" stroke="grey" stroke-width="2" points="655.56,-118.08 652.21,-108.03 648.56,-117.98 655.56,-118.08"/>
</g>
<!-- 3&#45;&gt;2 -->
<g id="edge5" class="edge">
<title>3&#45;&gt;2</title>
<path fill="none" stroke="grey" stroke-width="2" d="M558.5,-231.69C558.5,-224.21 558.5,-215.16 558.5,-206.36"/>
<polygon fill="grey" stroke="grey" stroke-width="2" points="562,-206.26 558.5,-196.26 555,-206.26 562,-206.26"/>
</g>
<!-- 4 -->
<g id="node5" class="node">
<title>4</title>
<path fill="none" stroke="#56d8a2" stroke-width="2" d="M712.5,-340C712.5,-340 682.5,-340 682.5,-340 676.5,-340 670.5,-334 670.5,-328 670.5,-328 670.5,-316 670.5,-316 670.5,-310 676.5,-304 682.5,-304 682.5,-304 712.5,-304 712.5,-304 718.5,-304 724.5,-310 724.5,-316 724.5,-316 724.5,-328 724.5,-328 724.5,-334 718.5,-340 712.5,-340"/>
<text text-anchor="middle" x="697.5" y="-319.5" font-family="sans" font-size="10.00">dedup</text>
</g>
<!-- 4&#45;&gt;3 -->
<g id="edge6" class="edge">
<title>4&#45;&gt;3</title>
<path fill="none" stroke="grey" stroke-width="2" d="M670.37,-307.34C650.79,-297.48 623.95,-283.96 601.47,-272.64"/>
<polygon fill="grey" stroke="grey" stroke-width="2" points="602.96,-269.47 592.45,-268.1 599.81,-275.72 602.96,-269.47"/>
</g>
<!-- 5 -->
<g id="node6" class="node">
<title>5</title>
<path fill="none" stroke="#d8a456" stroke-width="2" d="M861,-412C861,-412 820,-412 820,-412 814,-412 808,-406 808,-400 808,-400 808,-388 808,-388 808,-382 814,-376 820,-376 820,-376 861,-376 861,-376 867,-376 873,-382 873,-388 873,-388 873,-400 873,-400 873,-406 867,-412 861,-412"/>
<text text-anchor="middle" x="840.5" y="-391.5" font-family="sans" font-size="10.00">umi_tools</text>
</g>
<!-- 5&#45;&gt;4 -->
<g id="edge10" class="edge">
<title>5&#45;&gt;4</title>
<path fill="none" stroke="grey" stroke-width="2" d="M807.69,-376.94C785.66,-366.16 756.62,-351.94 733.88,-340.81"/>
<polygon fill="grey" stroke="grey" stroke-width="2" points="735.39,-337.65 724.87,-336.4 732.31,-343.94 735.39,-337.65"/>
</g>
<!-- 14 -->
<g id="node15" class="node">
<title>14</title>
<path fill="none" stroke="#56d8a2" stroke-width="2" d="M573.5,-340C573.5,-340 543.5,-340 543.5,-340 537.5,-340 531.5,-334 531.5,-328 531.5,-328 531.5,-316 531.5,-316 531.5,-310 537.5,-304 543.5,-304 543.5,-304 573.5,-304 573.5,-304 579.5,-304 585.5,-310 585.5,-316 585.5,-316 585.5,-328 585.5,-328 585.5,-334 579.5,-340 573.5,-340"/>
<text text-anchor="middle" x="558.5" y="-319.5" font-family="sans" font-size="10.00">dedup</text>
</g>
<!-- 5&#45;&gt;14 -->
<g id="edge24" class="edge">
<title>5&#45;&gt;14</title>
<path fill="none" stroke="grey" stroke-width="2" d="M807.88,-384.9C755.05,-371.79 651.14,-346 595.59,-332.21"/>
<polygon fill="grey" stroke="grey" stroke-width="2" points="596.35,-328.79 585.8,-329.78 594.66,-335.58 596.35,-328.79"/>
</g>
<!-- 17 -->
<g id="node18" class="node">
<title>17</title>
<path fill="none" stroke="#56d8a2" stroke-width="2" d="M188.5,-340C188.5,-340 158.5,-340 158.5,-340 152.5,-340 146.5,-334 146.5,-328 146.5,-328 146.5,-316 146.5,-316 146.5,-310 152.5,-304 158.5,-304 158.5,-304 188.5,-304 188.5,-304 194.5,-304 200.5,-310 200.5,-316 200.5,-316 200.5,-328 200.5,-328 200.5,-334 194.5,-340 188.5,-340"/>
<text text-anchor="middle" x="173.5" y="-319.5" font-family="sans" font-size="10.00">dedup</text>
</g>
<!-- 5&#45;&gt;17 -->
<g id="edge30" class="edge">
<title>5&#45;&gt;17</title>
<path fill="none" stroke="grey" stroke-width="2" d="M807.95,-385.23C793.23,-381.95 775.56,-378.37 759.5,-376 574.15,-348.71 526.03,-357.54 339.5,-340 295.26,-335.84 244.43,-330.56 210.8,-327"/>
<polygon fill="grey" stroke="grey" stroke-width="2" points="210.83,-323.48 200.51,-325.91 210.09,-330.44 210.83,-323.48"/>
</g>
<!-- 20 -->
<g id="node21" class="node">
<title>20</title>
<path fill="none" stroke="#56d8a2" stroke-width="2" d="M390.5,-340C390.5,-340 360.5,-340 360.5,-340 354.5,-340 348.5,-334 348.5,-328 348.5,-328 348.5,-316 348.5,-316 348.5,-310 354.5,-304 360.5,-304 360.5,-304 390.5,-304 390.5,-304 396.5,-304 402.5,-310 402.5,-316 402.5,-316 402.5,-328 402.5,-328 402.5,-334 396.5,-340 390.5,-340"/>
<text text-anchor="middle" x="375.5" y="-319.5" font-family="sans" font-size="10.00">dedup</text>
</g>
<!-- 5&#45;&gt;20 -->
<g id="edge36" class="edge">
<title>5&#45;&gt;20</title>
<path fill="none" stroke="grey" stroke-width="2" d="M807.89,-385.61C793.15,-382.42 775.5,-378.78 759.5,-376 632.99,-354.02 481.76,-335.36 412.93,-327.29"/>
<polygon fill="grey" stroke="grey" stroke-width="2" points="412.94,-323.76 402.6,-326.08 412.13,-330.72 412.94,-323.76"/>
</g>
<!-- 26 -->
<g id="node27" class="node">
<title>26</title>
<path fill="none" stroke="#56d8a2" stroke-width="2" d="M998.5,-340C998.5,-340 968.5,-340 968.5,-340 962.5,-340 956.5,-334 956.5,-328 956.5,-328 956.5,-316 956.5,-316 956.5,-310 962.5,-304 968.5,-304 968.5,-304 998.5,-304 998.5,-304 1004.5,-304 1010.5,-310 1010.5,-316 1010.5,-316 1010.5,-328 1010.5,-328 1010.5,-334 1004.5,-340 998.5,-340"/>
<text text-anchor="middle" x="983.5" y="-319.5" font-family="sans" font-size="10.00">dedup</text>
</g>
<!-- 5&#45;&gt;26 -->
<g id="edge49" class="edge">
<title>5&#45;&gt;26</title>
<path fill="none" stroke="grey" stroke-width="2" d="M873.31,-376.94C895.34,-366.16 924.38,-351.94 947.12,-340.81"/>
<polygon fill="grey" stroke="grey" stroke-width="2" points="948.69,-343.94 956.13,-336.4 945.61,-337.65 948.69,-343.94"/>
</g>
<!-- 29 -->
<g id="node30" class="node">
<title>29</title>
<path fill="none" stroke="#56d8a2" stroke-width="2" d="M1159.5,-340C1159.5,-340 1129.5,-340 1129.5,-340 1123.5,-340 1117.5,-334 1117.5,-328 1117.5,-328 1117.5,-316 1117.5,-316 1117.5,-310 1123.5,-304 1129.5,-304 1129.5,-304 1159.5,-304 1159.5,-304 1165.5,-304 1171.5,-310 1171.5,-316 1171.5,-316 1171.5,-328 1171.5,-328 1171.5,-334 1165.5,-340 1159.5,-340"/>
<text text-anchor="middle" x="1144.5" y="-319.5" font-family="sans" font-size="10.00">dedup</text>
</g>
<!-- 5&#45;&gt;29 -->
<g id="edge55" class="edge">
<title>5&#45;&gt;29</title>
<path fill="none" stroke="grey" stroke-width="2" d="M873.03,-385.51C929.94,-372.41 1047.19,-345.41 1107.25,-331.58"/>
<polygon fill="grey" stroke="grey" stroke-width="2" points="1108.12,-334.97 1117.08,-329.31 1106.55,-328.15 1108.12,-334.97"/>
</g>
<!-- 32 -->
<g id="node33" class="node">
<title>32</title>
<path fill="none" stroke="#56d8a2" stroke-width="2" d="M1320.5,-340C1320.5,-340 1290.5,-340 1290.5,-340 1284.5,-340 1278.5,-334 1278.5,-328 1278.5,-328 1278.5,-316 1278.5,-316 1278.5,-310 1284.5,-304 1290.5,-304 1290.5,-304 1320.5,-304 1320.5,-304 1326.5,-304 1332.5,-310 1332.5,-316 1332.5,-316 1332.5,-328 1332.5,-328 1332.5,-334 1326.5,-340 1320.5,-340"/>
<text text-anchor="middle" x="1305.5" y="-319.5" font-family="sans" font-size="10.00">dedup</text>
</g>
<!-- 5&#45;&gt;32 -->
<g id="edge61" class="edge">
<title>5&#45;&gt;32</title>
<path fill="none" stroke="grey" stroke-width="2" d="M873.11,-385.61C887.85,-382.42 905.5,-378.78 921.5,-376 938.52,-373.04 1175.29,-340.73 1268.33,-328.06"/>
<polygon fill="grey" stroke="grey" stroke-width="2" points="1268.99,-331.5 1278.43,-326.68 1268.05,-324.56 1268.99,-331.5"/>
</g>
<!-- 35 -->
<g id="node36" class="node">
<title>35</title>
<path fill="none" stroke="#56d8a2" stroke-width="2" d="M1522.5,-340C1522.5,-340 1492.5,-340 1492.5,-340 1486.5,-340 1480.5,-334 1480.5,-328 1480.5,-328 1480.5,-316 1480.5,-316 1480.5,-310 1486.5,-304 1492.5,-304 1492.5,-304 1522.5,-304 1522.5,-304 1528.5,-304 1534.5,-310 1534.5,-316 1534.5,-316 1534.5,-328 1534.5,-328 1534.5,-334 1528.5,-340 1522.5,-340"/>
<text text-anchor="middle" x="1507.5" y="-319.5" font-family="sans" font-size="10.00">dedup</text>
</g>
<!-- 5&#45;&gt;35 -->
<g id="edge67" class="edge">
<title>5&#45;&gt;35</title>
<path fill="none" stroke="grey" stroke-width="2" d="M873.05,-385.23C887.77,-381.95 905.44,-378.37 921.5,-376 1106.85,-348.71 1154.97,-357.54 1341.5,-340 1385.74,-335.84 1436.57,-330.56 1470.2,-327"/>
<polygon fill="grey" stroke="grey" stroke-width="2" points="1470.91,-330.44 1480.49,-325.91 1470.17,-323.48 1470.91,-330.44"/>
</g>
<!-- 6 -->
<g id="node7" class="node">
<title>6</title>
<path fill="none" stroke="#56a2d8" stroke-width="2" d="M866.5,-732C866.5,-732 760.5,-732 760.5,-732 754.5,-732 748.5,-726 748.5,-720 748.5,-720 748.5,-692 748.5,-692 748.5,-686 754.5,-680 760.5,-680 760.5,-680 866.5,-680 866.5,-680 872.5,-680 878.5,-686 878.5,-692 878.5,-692 878.5,-720 878.5,-720 878.5,-726 872.5,-732 866.5,-732"/>
<text text-anchor="middle" x="813.5" y="-720" font-family="sans" font-size="10.00">merge_reads</text>
<text text-anchor="middle" x="813.5" y="-709" font-family="sans" font-size="10.00">output: scGET_sample</text>
<text text-anchor="middle" x="813.5" y="-698" font-family="sans" font-size="10.00">read: 2</text>
<text text-anchor="middle" x="813.5" y="-687" font-family="sans" font-size="10.00">sample: scGET_sample</text>
</g>
<!-- 6&#45;&gt;5 -->
<g id="edge14" class="edge">
<title>6&#45;&gt;5</title>
<path fill="none" stroke="grey" stroke-width="2" d="M815.69,-679.89C820.69,-622.49 832.92,-482.04 838.11,-422.45"/>
<polygon fill="grey" stroke="grey" stroke-width="2" points="841.61,-422.57 838.99,-412.31 834.64,-421.96 841.61,-422.57"/>
</g>
<!-- 9 -->
<g id="node10" class="node">
<title>9</title>
<path fill="none" stroke="#78d856" stroke-width="2" d="M972,-644C972,-644 937,-644 937,-644 931,-644 925,-638 925,-632 925,-632 925,-620 925,-620 925,-614 931,-608 937,-608 937,-608 972,-608 972,-608 978,-608 984,-614 984,-620 984,-620 984,-632 984,-632 984,-638 978,-644 972,-644"/>
<text text-anchor="middle" x="954.5" y="-623.5" font-family="sans" font-size="10.00">tag_dust</text>
</g>
<!-- 6&#45;&gt;9 -->
<g id="edge18" class="edge">
<title>6&#45;&gt;9</title>
<path fill="none" stroke="grey" stroke-width="2" d="M858.89,-679.89C877.26,-669.73 898.25,-658.12 915.88,-648.37"/>
<polygon fill="grey" stroke="grey" stroke-width="2" points="917.7,-651.36 924.75,-643.46 914.31,-645.23 917.7,-651.36"/>
</g>
<!-- 7 -->
<g id="node8" class="node">
<title>7</title>
<path fill="none" stroke="#56c9d8" stroke-width="2" d="M979,-804C979,-804 944,-804 944,-804 938,-804 932,-798 932,-792 932,-792 932,-780 932,-780 932,-774 938,-768 944,-768 944,-768 979,-768 979,-768 985,-768 991,-774 991,-780 991,-780 991,-792 991,-792 991,-798 985,-804 979,-804"/>
<text text-anchor="middle" x="961.5" y="-783.5" font-family="sans" font-size="10.00">file_read</text>
</g>
<!-- 7&#45;&gt;6 -->
<g id="edge15" class="edge">
<title>7&#45;&gt;6</title>
<path fill="none" stroke="grey" stroke-width="2" d="M931.91,-769.4C914.19,-760.07 891.09,-747.89 870,-736.78"/>
<polygon fill="grey" stroke="grey" stroke-width="2" points="871.58,-733.66 861.1,-732.09 868.32,-739.85 871.58,-733.66"/>
</g>
<!-- 10 -->
<g id="node11" class="node">
<title>10</title>
<path fill="none" stroke="#56a2d8" stroke-width="2" d="M1162.5,-732C1162.5,-732 1056.5,-732 1056.5,-732 1050.5,-732 1044.5,-726 1044.5,-720 1044.5,-720 1044.5,-692 1044.5,-692 1044.5,-686 1050.5,-680 1056.5,-680 1056.5,-680 1162.5,-680 1162.5,-680 1168.5,-680 1174.5,-686 1174.5,-692 1174.5,-692 1174.5,-720 1174.5,-720 1174.5,-726 1168.5,-732 1162.5,-732"/>
<text text-anchor="middle" x="1109.5" y="-720" font-family="sans" font-size="10.00">merge_reads</text>
<text text-anchor="middle" x="1109.5" y="-709" font-family="sans" font-size="10.00">output: scGET_sample</text>
<text text-anchor="middle" x="1109.5" y="-698" font-family="sans" font-size="10.00">read: 1</text>
<text text-anchor="middle" x="1109.5" y="-687" font-family="sans" font-size="10.00">sample: scGET_sample</text>
</g>
<!-- 7&#45;&gt;10 -->
<g id="edge20" class="edge">
<title>7&#45;&gt;10</title>
<path fill="none" stroke="grey" stroke-width="2" d="M991.09,-769.4C1008.81,-760.07 1031.91,-747.89 1053,-736.78"/>
<polygon fill="grey" stroke="grey" stroke-width="2" points="1054.68,-739.85 1061.9,-732.09 1051.42,-733.66 1054.68,-739.85"/>
</g>
<!-- 11 -->
<g id="node12" class="node">
<title>11</title>
<path fill="none" stroke="#56a2d8" stroke-width="2" d="M1014.5,-732C1014.5,-732 908.5,-732 908.5,-732 902.5,-732 896.5,-726 896.5,-720 896.5,-720 896.5,-692 896.5,-692 896.5,-686 902.5,-680 908.5,-680 908.5,-680 1014.5,-680 1014.5,-680 1020.5,-680 1026.5,-686 1026.5,-692 1026.5,-692 1026.5,-720 1026.5,-720 1026.5,-726 1020.5,-732 1014.5,-732"/>
<text text-anchor="middle" x="961.5" y="-720" font-family="sans" font-size="10.00">merge_reads</text>
<text text-anchor="middle" x="961.5" y="-709" font-family="sans" font-size="10.00">output: scGET_sample</text>
<text text-anchor="middle" x="961.5" y="-698" font-family="sans" font-size="10.00">read: 3</text>
<text text-anchor="middle" x="961.5" y="-687" font-family="sans" font-size="10.00">sample: scGET_sample</text>
</g>
<!-- 7&#45;&gt;11 -->
<g id="edge21" class="edge">
<title>7&#45;&gt;11</title>
<path fill="none" stroke="grey" stroke-width="2" d="M961.5,-767.69C961.5,-760.21 961.5,-751.16 961.5,-742.36"/>
<polygon fill="grey" stroke="grey" stroke-width="2" points="965,-742.26 961.5,-732.26 958,-742.26 965,-742.26"/>
</g>
<!-- 8 -->
<g id="node9" class="node">
<title>8</title>
<path fill="none" stroke="#59d856" stroke-width="2" d="M967.5,-572C967.5,-572 927.5,-572 927.5,-572 921.5,-572 915.5,-566 915.5,-560 915.5,-560 915.5,-548 915.5,-548 915.5,-542 921.5,-536 927.5,-536 927.5,-536 967.5,-536 967.5,-536 973.5,-536 979.5,-542 979.5,-548 979.5,-548 979.5,-560 979.5,-560 979.5,-566 973.5,-572 967.5,-572"/>
<text text-anchor="middle" x="947.5" y="-551.5" font-family="sans" font-size="10.00">compress</text>
</g>
<!-- 8&#45;&gt;4 -->
<g id="edge11" class="edge">
<title>8&#45;&gt;4</title>
<path fill="none" stroke="grey" stroke-width="2" d="M915.03,-550.46C850.81,-544.85 710.55,-529.5 673.5,-500 628.3,-464.02 610.12,-428.38 634.5,-376 640.46,-363.2 651.21,-352.38 662.15,-343.93"/>
<polygon fill="grey" stroke="grey" stroke-width="2" points="664.42,-346.61 670.49,-337.93 660.33,-340.93 664.42,-346.61"/>
</g>
<!-- 12 -->
<g id="node13" class="node">
<title>12</title>
<path fill="none" stroke="#d87d56" stroke-width="2" d="M800.5,-500C800.5,-500 694.5,-500 694.5,-500 688.5,-500 682.5,-494 682.5,-488 682.5,-488 682.5,-460 682.5,-460 682.5,-454 688.5,-448 694.5,-448 694.5,-448 800.5,-448 800.5,-448 806.5,-448 812.5,-454 812.5,-460 812.5,-460 812.5,-488 812.5,-488 812.5,-494 806.5,-500 800.5,-500"/>
<text text-anchor="middle" x="747.5" y="-488" font-family="sans" font-size="10.00">bwa</text>
<text text-anchor="middle" x="747.5" y="-477" font-family="sans" font-size="10.00">barcode: CGTACTAG</text>
<text text-anchor="middle" x="747.5" y="-466" font-family="sans" font-size="10.00">output: scGET_sample</text>
<text text-anchor="middle" x="747.5" y="-455" font-family="sans" font-size="10.00">sample: scGET_sample</text>
</g>
<!-- 8&#45;&gt;12 -->
<g id="edge22" class="edge">
<title>8&#45;&gt;12</title>
<path fill="none" stroke="grey" stroke-width="2" d="M915.37,-540.47C890.04,-530.59 853.72,-516.43 821.33,-503.8"/>
<polygon fill="grey" stroke="grey" stroke-width="2" points="822.46,-500.48 811.87,-500.11 819.92,-507 822.46,-500.48"/>
</g>
<!-- 8&#45;&gt;14 -->
<g id="edge25" class="edge">
<title>8&#45;&gt;14</title>
<path fill="none" stroke="grey" stroke-width="2" d="M915.24,-551.66C842.86,-548.05 670.45,-535.82 626.5,-500 580.34,-462.38 565.46,-389.53 560.7,-350.04"/>
<polygon fill="grey" stroke="grey" stroke-width="2" points="564.18,-349.64 559.63,-340.07 557.22,-350.39 564.18,-349.64"/>
</g>
<!-- 15 -->
<g id="node16" class="node">
<title>15</title>
<path fill="none" stroke="#d87d56" stroke-width="2" d="M537.5,-500C537.5,-500 431.5,-500 431.5,-500 425.5,-500 419.5,-494 419.5,-488 419.5,-488 419.5,-460 419.5,-460 419.5,-454 425.5,-448 431.5,-448 431.5,-448 537.5,-448 537.5,-448 543.5,-448 549.5,-454 549.5,-460 549.5,-460 549.5,-488 549.5,-488 549.5,-494 543.5,-500 537.5,-500"/>
<text text-anchor="middle" x="484.5" y="-488" font-family="sans" font-size="10.00">bwa</text>
<text text-anchor="middle" x="484.5" y="-477" font-family="sans" font-size="10.00">barcode: TCCTGAGC</text>
<text text-anchor="middle" x="484.5" y="-466" font-family="sans" font-size="10.00">output: scGET_sample</text>
<text text-anchor="middle" x="484.5" y="-455" font-family="sans" font-size="10.00">sample: scGET_sample</text>
</g>
<!-- 8&#45;&gt;15 -->
<g id="edge28" class="edge">
<title>8&#45;&gt;15</title>
<path fill="none" stroke="grey" stroke-width="2" d="M915.31,-550.41C848.91,-544.67 692.17,-529.02 563.5,-500 562.24,-499.72 560.97,-499.42 559.69,-499.11"/>
<polygon fill="grey" stroke="grey" stroke-width="2" points="560.35,-495.67 549.79,-496.6 558.62,-502.45 560.35,-495.67"/>
</g>
<!-- 8&#45;&gt;17 -->
<g id="edge31" class="edge">
<title>8&#45;&gt;17</title>
<path fill="none" stroke="grey" stroke-width="2" d="M915.15,-552.95C779.61,-552.42 262.06,-547.32 208.5,-500 166.03,-462.48 166.11,-389.59 169.81,-350.07"/>
<polygon fill="grey" stroke="grey" stroke-width="2" points="173.29,-350.41 170.88,-340.09 166.33,-349.65 173.29,-350.41"/>
</g>
<!-- 18 -->
<g id="node19" class="node">
<title>18</title>
<path fill="none" stroke="#d87d56" stroke-width="2" d="M133.5,-500C133.5,-500 27.5,-500 27.5,-500 21.5,-500 15.5,-494 15.5,-488 15.5,-488 15.5,-460 15.5,-460 15.5,-454 21.5,-448 27.5,-448 27.5,-448 133.5,-448 133.5,-448 139.5,-448 145.5,-454 145.5,-460 145.5,-460 145.5,-488 145.5,-488 145.5,-494 139.5,-500 133.5,-500"/>
<text text-anchor="middle" x="80.5" y="-488" font-family="sans" font-size="10.00">bwa</text>
<text text-anchor="middle" x="80.5" y="-477" font-family="sans" font-size="10.00">barcode: TCATGAGC</text>
<text text-anchor="middle" x="80.5" y="-466" font-family="sans" font-size="10.00">output: scGET_sample</text>
<text text-anchor="middle" x="80.5" y="-455" font-family="sans" font-size="10.00">sample: scGET_sample</text>
</g>
<!-- 8&#45;&gt;18 -->
<g id="edge34" class="edge">
<title>8&#45;&gt;18</title>
<path fill="none" stroke="grey" stroke-width="2" d="M915.25,-553.58C807.26,-554.92 448.83,-554.69 159.5,-500 158.23,-499.76 156.95,-499.51 155.66,-499.24"/>
<polygon fill="grey" stroke="grey" stroke-width="2" points="156.24,-495.78 145.72,-496.96 154.68,-502.6 156.24,-495.78"/>
</g>
<!-- 8&#45;&gt;20 -->
<g id="edge37" class="edge">
<title>8&#45;&gt;20</title>
<path fill="none" stroke="grey" stroke-width="2" d="M915.39,-552.03C805.33,-548.39 448,-534.04 410.5,-500 368.64,-462.01 368.4,-389.63 371.91,-350.22"/>
<polygon fill="grey" stroke="grey" stroke-width="2" points="375.39,-350.57 372.94,-340.26 368.43,-349.85 375.39,-350.57"/>
</g>
<!-- 21 -->
<g id="node22" class="node">
<title>21</title>
<path fill="none" stroke="#d87d56" stroke-width="2" d="M335.5,-500C335.5,-500 229.5,-500 229.5,-500 223.5,-500 217.5,-494 217.5,-488 217.5,-488 217.5,-460 217.5,-460 217.5,-454 223.5,-448 229.5,-448 229.5,-448 335.5,-448 335.5,-448 341.5,-448 347.5,-454 347.5,-460 347.5,-460 347.5,-488 347.5,-488 347.5,-494 341.5,-500 335.5,-500"/>
<text text-anchor="middle" x="282.5" y="-488" font-family="sans" font-size="10.00">bwa</text>
<text text-anchor="middle" x="282.5" y="-477" font-family="sans" font-size="10.00">barcode: CCTGAGAT</text>
<text text-anchor="middle" x="282.5" y="-466" font-family="sans" font-size="10.00">output: scGET_sample</text>
<text text-anchor="middle" x="282.5" y="-455" font-family="sans" font-size="10.00">sample: scGET_sample</text>
</g>
<!-- 8&#45;&gt;21 -->
<g id="edge40" class="edge">
<title>8&#45;&gt;21</title>
<path fill="none" stroke="grey" stroke-width="2" d="M915.39,-552.52C826.47,-550.69 569.81,-541.87 361.5,-500 360.23,-499.74 358.95,-499.48 357.67,-499.2"/>
<polygon fill="grey" stroke="grey" stroke-width="2" points="358.28,-495.74 347.74,-496.84 356.66,-502.56 358.28,-495.74"/>
</g>
<!-- 8&#45;&gt;26 -->
<g id="edge50" class="edge">
<title>8&#45;&gt;26</title>
<path fill="none" stroke="grey" stroke-width="2" d="M979.85,-536.47C994.49,-527.49 1010.86,-515.12 1021.5,-500 1044.89,-466.74 1040.89,-452.27 1046.5,-412 1048.71,-396.15 1053.25,-390.51 1046.5,-376 1040.54,-363.2 1029.79,-352.38 1018.85,-343.93"/>
<polygon fill="grey" stroke="grey" stroke-width="2" points="1020.67,-340.93 1010.51,-337.93 1016.58,-346.61 1020.67,-340.93"/>
</g>
<!-- 27 -->
<g id="node28" class="node">
<title>27</title>
<path fill="none" stroke="#d87d56" stroke-width="2" d="M1000.5,-500C1000.5,-500 894.5,-500 894.5,-500 888.5,-500 882.5,-494 882.5,-488 882.5,-488 882.5,-460 882.5,-460 882.5,-454 888.5,-448 894.5,-448 894.5,-448 1000.5,-448 1000.5,-448 1006.5,-448 1012.5,-454 1012.5,-460 1012.5,-460 1012.5,-488 1012.5,-488 1012.5,-494 1006.5,-500 1000.5,-500"/>
<text text-anchor="middle" x="947.5" y="-488" font-family="sans" font-size="10.00">bwa</text>
<text text-anchor="middle" x="947.5" y="-477" font-family="sans" font-size="10.00">barcode: TAAGGCGA</text>
<text text-anchor="middle" x="947.5" y="-466" font-family="sans" font-size="10.00">output: scGET_sample</text>
<text text-anchor="middle" x="947.5" y="-455" font-family="sans" font-size="10.00">sample: scGET_sample</text>
</g>
<!-- 8&#45;&gt;27 -->
<g id="edge53" class="edge">
<title>8&#45;&gt;27</title>
<path fill="none" stroke="grey" stroke-width="2" d="M947.5,-535.69C947.5,-528.21 947.5,-519.16 947.5,-510.36"/>
<polygon fill="grey" stroke="grey" stroke-width="2" points="951,-510.26 947.5,-500.26 944,-510.26 951,-510.26"/>
</g>
<!-- 8&#45;&gt;29 -->
<g id="edge56" class="edge">
<title>8&#45;&gt;29</title>
<path fill="none" stroke="grey" stroke-width="2" d="M979.6,-551.49C1046.46,-547.67 1197.38,-535.26 1232.5,-500 1271.71,-460.63 1277.53,-423.38 1248.5,-376 1233.96,-352.26 1205.07,-338.74 1181.43,-331.3"/>
<polygon fill="grey" stroke="grey" stroke-width="2" points="1182.25,-327.9 1171.67,-328.48 1180.3,-334.62 1182.25,-327.9"/>
</g>
<!-- 30 -->
<g id="node31" class="node">
<title>30</title>
<path fill="none" stroke="#d87d56" stroke-width="2" d="M1211.5,-500C1211.5,-500 1105.5,-500 1105.5,-500 1099.5,-500 1093.5,-494 1093.5,-488 1093.5,-488 1093.5,-460 1093.5,-460 1093.5,-454 1099.5,-448 1105.5,-448 1105.5,-448 1211.5,-448 1211.5,-448 1217.5,-448 1223.5,-454 1223.5,-460 1223.5,-460 1223.5,-488 1223.5,-488 1223.5,-494 1217.5,-500 1211.5,-500"/>
<text text-anchor="middle" x="1158.5" y="-488" font-family="sans" font-size="10.00">bwa</text>
<text text-anchor="middle" x="1158.5" y="-477" font-family="sans" font-size="10.00">barcode: GCTACGCT</text>
<text text-anchor="middle" x="1158.5" y="-466" font-family="sans" font-size="10.00">output: scGET_sample</text>
<text text-anchor="middle" x="1158.5" y="-455" font-family="sans" font-size="10.00">sample: scGET_sample</text>
</g>
<!-- 8&#45;&gt;30 -->
<g id="edge59" class="edge">
<title>8&#45;&gt;30</title>
<path fill="none" stroke="grey" stroke-width="2" d="M979.55,-541.15C1007.17,-530.94 1048.12,-515.8 1083.89,-502.58"/>
<polygon fill="grey" stroke="grey" stroke-width="2" points="1085.17,-505.84 1093.34,-499.09 1082.75,-499.27 1085.17,-505.84"/>
</g>
<!-- 8&#45;&gt;32 -->
<g id="edge62" class="edge">
<title>8&#45;&gt;32</title>
<path fill="none" stroke="grey" stroke-width="2" d="M979.83,-551.69C1083.26,-547.21 1401.2,-531 1434.5,-500 1475.17,-462.14 1482.34,-421.54 1450.5,-376 1426.35,-341.46 1377.17,-329.36 1342.81,-325.16"/>
<polygon fill="grey" stroke="grey" stroke-width="2" points="1342.98,-321.66 1332.67,-324.09 1342.25,-328.62 1342.98,-321.66"/>
</g>
<!-- 33 -->
<g id="node34" class="node">
<title>33</title>
<path fill="none" stroke="#d87d56" stroke-width="2" d="M1413.5,-500C1413.5,-500 1307.5,-500 1307.5,-500 1301.5,-500 1295.5,-494 1295.5,-488 1295.5,-488 1295.5,-460 1295.5,-460 1295.5,-454 1301.5,-448 1307.5,-448 1307.5,-448 1413.5,-448 1413.5,-448 1419.5,-448 1425.5,-454 1425.5,-460 1425.5,-460 1425.5,-488 1425.5,-488 1425.5,-494 1419.5,-500 1413.5,-500"/>
<text text-anchor="middle" x="1360.5" y="-488" font-family="sans" font-size="10.00">bwa</text>
<text text-anchor="middle" x="1360.5" y="-477" font-family="sans" font-size="10.00">barcode: AGGCTCCG</text>
<text text-anchor="middle" x="1360.5" y="-466" font-family="sans" font-size="10.00">output: scGET_sample</text>
<text text-anchor="middle" x="1360.5" y="-455" font-family="sans" font-size="10.00">sample: scGET_sample</text>
</g>
<!-- 8&#45;&gt;33 -->
<g id="edge65" class="edge">
<title>8&#45;&gt;33</title>
<path fill="none" stroke="grey" stroke-width="2" d="M979.58,-549.52C1039.46,-542.68 1172.08,-525.84 1281.5,-500 1282.76,-499.7 1284.03,-499.39 1285.31,-499.08"/>
<polygon fill="grey" stroke="grey" stroke-width="2" points="1286.4,-502.41 1295.18,-496.5 1284.62,-495.64 1286.4,-502.41"/>
</g>
<!-- 8&#45;&gt;35 -->
<g id="edge68" class="edge">
<title>8&#45;&gt;35</title>
<path fill="none" stroke="grey" stroke-width="2" d="M979.85,-552.79C1109.56,-551.64 1587.28,-544.39 1636.5,-500 1677.76,-462.78 1684.34,-421.54 1652.5,-376 1628.35,-341.46 1579.17,-329.36 1544.81,-325.16"/>
<polygon fill="grey" stroke="grey" stroke-width="2" points="1544.98,-321.66 1534.67,-324.09 1544.25,-328.62 1544.98,-321.66"/>
</g>
<!-- 36 -->
<g id="node37" class="node">
<title>36</title>
<path fill="none" stroke="#d87d56" stroke-width="2" d="M1615.5,-500C1615.5,-500 1509.5,-500 1509.5,-500 1503.5,-500 1497.5,-494 1497.5,-488 1497.5,-488 1497.5,-460 1497.5,-460 1497.5,-454 1503.5,-448 1509.5,-448 1509.5,-448 1615.5,-448 1615.5,-448 1621.5,-448 1627.5,-454 1627.5,-460 1627.5,-460 1627.5,-488 1627.5,-488 1627.5,-494 1621.5,-500 1615.5,-500"/>
<text text-anchor="middle" x="1562.5" y="-488" font-family="sans" font-size="10.00">bwa</text>
<text text-anchor="middle" x="1562.5" y="-477" font-family="sans" font-size="10.00">barcode: CTGCGCAT</text>
<text text-anchor="middle" x="1562.5" y="-466" font-family="sans" font-size="10.00">output: scGET_sample</text>
<text text-anchor="middle" x="1562.5" y="-455" font-family="sans" font-size="10.00">sample: scGET_sample</text>
</g>
<!-- 8&#45;&gt;36 -->
<g id="edge71" class="edge">
<title>8&#45;&gt;36</title>
<path fill="none" stroke="grey" stroke-width="2" d="M979.56,-552.15C1063.28,-549.43 1295.04,-538.7 1483.5,-500 1484.77,-499.74 1486.04,-499.47 1487.33,-499.18"/>
<polygon fill="grey" stroke="grey" stroke-width="2" points="1488.35,-502.54 1497.25,-496.8 1486.71,-495.73 1488.35,-502.54"/>
</g>
<!-- 9&#45;&gt;8 -->
<g id="edge16" class="edge">
<title>9&#45;&gt;8</title>
<path fill="none" stroke="grey" stroke-width="2" d="M952.77,-607.7C952,-599.98 951.07,-590.71 950.21,-582.11"/>
<polygon fill="grey" stroke="grey" stroke-width="2" points="953.69,-581.71 949.21,-572.1 946.72,-582.4 953.69,-581.71"/>
</g>
<!-- 10&#45;&gt;9 -->
<g id="edge17" class="edge">
<title>10&#45;&gt;9</title>
<path fill="none" stroke="grey" stroke-width="2" d="M1059.6,-679.89C1038.21,-669.13 1013.59,-656.74 993.56,-646.66"/>
<polygon fill="grey" stroke="grey" stroke-width="2" points="994.93,-643.43 984.42,-642.06 991.78,-649.68 994.93,-643.43"/>
</g>
<!-- 11&#45;&gt;9 -->
<g id="edge19" class="edge">
<title>11&#45;&gt;9</title>
<path fill="none" stroke="grey" stroke-width="2" d="M959.25,-679.89C958.52,-671.75 957.7,-662.68 956.96,-654.38"/>
<polygon fill="grey" stroke="grey" stroke-width="2" points="960.44,-654.06 956.06,-644.41 953.47,-654.68 960.44,-654.06"/>
</g>
<!-- 12&#45;&gt;4 -->
<g id="edge12" class="edge">
<title>12&#45;&gt;4</title>
<path fill="none" stroke="grey" stroke-width="2" d="M757.72,-447.95C764.36,-427.67 770.01,-398.81 759.5,-376 753.74,-363.5 743.41,-352.85 732.82,-344.44"/>
<polygon fill="grey" stroke="grey" stroke-width="2" points="734.86,-341.6 724.74,-338.46 730.69,-347.23 734.86,-341.6"/>
</g>
<!-- 13 -->
<g id="node14" class="node">
<title>13</title>
<path fill="none" stroke="#56d87b" stroke-width="2" d="M739,-412C739,-412 656,-412 656,-412 650,-412 644,-406 644,-400 644,-400 644,-388 644,-388 644,-382 650,-376 656,-376 656,-376 739,-376 739,-376 745,-376 751,-382 751,-388 751,-388 751,-400 751,-400 751,-406 745,-412 739,-412"/>
<text text-anchor="middle" x="697.5" y="-391.5" font-family="sans" font-size="10.00">index_allignement</text>
</g>
<!-- 12&#45;&gt;13 -->
<g id="edge23" class="edge">
<title>12&#45;&gt;13</title>
<path fill="none" stroke="grey" stroke-width="2" d="M731.4,-447.89C725.9,-439.3 719.72,-429.67 714.17,-421.01"/>
<polygon fill="grey" stroke="grey" stroke-width="2" points="717,-418.94 708.66,-412.41 711.11,-422.72 717,-418.94"/>
</g>
<!-- 13&#45;&gt;4 -->
<g id="edge13" class="edge">
<title>13&#45;&gt;4</title>
<path fill="none" stroke="grey" stroke-width="2" d="M697.5,-375.7C697.5,-367.98 697.5,-358.71 697.5,-350.11"/>
<polygon fill="grey" stroke="grey" stroke-width="2" points="701,-350.1 697.5,-340.1 694,-350.1 701,-350.1"/>
</g>
<!-- 14&#45;&gt;3 -->
<g id="edge7" class="edge">
<title>14&#45;&gt;3</title>
<path fill="none" stroke="grey" stroke-width="2" d="M558.5,-303.7C558.5,-295.98 558.5,-286.71 558.5,-278.11"/>
<polygon fill="grey" stroke="grey" stroke-width="2" points="562,-278.1 558.5,-268.1 555,-278.1 562,-278.1"/>
</g>
<!-- 15&#45;&gt;14 -->
<g id="edge26" class="edge">
<title>15&#45;&gt;14</title>
<path fill="none" stroke="grey" stroke-width="2" d="M499.77,-447.81C506.14,-436.94 513.45,-423.99 519.5,-412 529.83,-391.51 540.2,-367.66 547.64,-349.81"/>
<polygon fill="grey" stroke="grey" stroke-width="2" points="550.98,-350.89 551.56,-340.32 544.51,-348.22 550.98,-350.89"/>
</g>
<!-- 16 -->
<g id="node17" class="node">
<title>16</title>
<path fill="none" stroke="#56d87b" stroke-width="2" d="M499,-412C499,-412 416,-412 416,-412 410,-412 404,-406 404,-400 404,-400 404,-388 404,-388 404,-382 410,-376 416,-376 416,-376 499,-376 499,-376 505,-376 511,-382 511,-388 511,-388 511,-400 511,-400 511,-406 505,-412 499,-412"/>
<text text-anchor="middle" x="457.5" y="-391.5" font-family="sans" font-size="10.00">index_allignement</text>
</g>
<!-- 15&#45;&gt;16 -->
<g id="edge29" class="edge">
<title>15&#45;&gt;16</title>
<path fill="none" stroke="grey" stroke-width="2" d="M475.81,-447.89C472.96,-439.66 469.78,-430.48 466.88,-422.1"/>
<polygon fill="grey" stroke="grey" stroke-width="2" points="470.11,-420.72 463.53,-412.41 463.49,-423.01 470.11,-420.72"/>
</g>
<!-- 16&#45;&gt;14 -->
<g id="edge27" class="edge">
<title>16&#45;&gt;14</title>
<path fill="none" stroke="grey" stroke-width="2" d="M482.21,-375.88C495.17,-366.89 511.23,-355.76 525.27,-346.03"/>
<polygon fill="grey" stroke="grey" stroke-width="2" points="527.47,-348.76 533.7,-340.19 523.48,-343.01 527.47,-348.76"/>
</g>
<!-- 17&#45;&gt;3 -->
<g id="edge8" class="edge">
<title>17&#45;&gt;3</title>
<path fill="none" stroke="grey" stroke-width="2" d="M200.57,-316.08C262.58,-304.8 416.03,-276.9 500.48,-261.55"/>
<polygon fill="grey" stroke="grey" stroke-width="2" points="501.22,-264.97 510.43,-259.74 499.96,-258.09 501.22,-264.97"/>
</g>
<!-- 18&#45;&gt;17 -->
<g id="edge32" class="edge">
<title>18&#45;&gt;17</title>
<path fill="none" stroke="grey" stroke-width="2" d="M96.07,-447.89C113.07,-420.47 140.17,-376.76 157.39,-348.99"/>
<polygon fill="grey" stroke="grey" stroke-width="2" points="160.52,-350.57 162.82,-340.23 154.57,-346.88 160.52,-350.57"/>
</g>
<!-- 19 -->
<g id="node20" class="node">
<title>19</title>
<path fill="none" stroke="#56d87b" stroke-width="2" d="M95,-412C95,-412 12,-412 12,-412 6,-412 0,-406 0,-400 0,-400 0,-388 0,-388 0,-382 6,-376 12,-376 12,-376 95,-376 95,-376 101,-376 107,-382 107,-388 107,-388 107,-400 107,-400 107,-406 101,-412 95,-412"/>
<text text-anchor="middle" x="53.5" y="-391.5" font-family="sans" font-size="10.00">index_allignement</text>
</g>
<!-- 18&#45;&gt;19 -->
<g id="edge35" class="edge">
<title>18&#45;&gt;19</title>
<path fill="none" stroke="grey" stroke-width="2" d="M71.81,-447.89C68.96,-439.66 65.78,-430.48 62.88,-422.1"/>
<polygon fill="grey" stroke="grey" stroke-width="2" points="66.11,-420.72 59.53,-412.41 59.49,-423.01 66.11,-420.72"/>
</g>
<!-- 19&#45;&gt;17 -->
<g id="edge33" class="edge">
<title>19&#45;&gt;17</title>
<path fill="none" stroke="grey" stroke-width="2" d="M82.86,-375.88C99.4,-366.23 120.19,-354.1 137.69,-343.89"/>
<polygon fill="grey" stroke="grey" stroke-width="2" points="139.63,-346.81 146.5,-338.75 136.1,-340.77 139.63,-346.81"/>
</g>
<!-- 20&#45;&gt;3 -->
<g id="edge9" class="edge">
<title>20&#45;&gt;3</title>
<path fill="none" stroke="grey" stroke-width="2" d="M402.5,-310.67C429.2,-300.46 470.79,-284.55 504.32,-271.72"/>
<polygon fill="grey" stroke="grey" stroke-width="2" points="505.9,-274.87 513.99,-268.02 503.4,-268.33 505.9,-274.87"/>
</g>
<!-- 21&#45;&gt;20 -->
<g id="edge38" class="edge">
<title>21&#45;&gt;20</title>
<path fill="none" stroke="grey" stroke-width="2" d="M298.07,-447.89C315.07,-420.47 342.17,-376.76 359.39,-348.99"/>
<polygon fill="grey" stroke="grey" stroke-width="2" points="362.52,-350.57 364.82,-340.23 356.57,-346.88 362.52,-350.57"/>
</g>
<!-- 22 -->
<g id="node23" class="node">
<title>22</title>
<path fill="none" stroke="#56d87b" stroke-width="2" d="M297,-412C297,-412 214,-412 214,-412 208,-412 202,-406 202,-400 202,-400 202,-388 202,-388 202,-382 208,-376 214,-376 214,-376 297,-376 297,-376 303,-376 309,-382 309,-388 309,-388 309,-400 309,-400 309,-406 303,-412 297,-412"/>
<text text-anchor="middle" x="255.5" y="-391.5" font-family="sans" font-size="10.00">index_allignement</text>
</g>
<!-- 21&#45;&gt;22 -->
<g id="edge41" class="edge">
<title>21&#45;&gt;22</title>
<path fill="none" stroke="grey" stroke-width="2" d="M273.81,-447.89C270.96,-439.66 267.78,-430.48 264.88,-422.1"/>
<polygon fill="grey" stroke="grey" stroke-width="2" points="268.11,-420.72 261.53,-412.41 261.49,-423.01 268.11,-420.72"/>
</g>
<!-- 22&#45;&gt;20 -->
<g id="edge39" class="edge">
<title>22&#45;&gt;20</title>
<path fill="none" stroke="grey" stroke-width="2" d="M284.86,-375.88C301.4,-366.23 322.19,-354.1 339.69,-343.89"/>
<polygon fill="grey" stroke="grey" stroke-width="2" points="341.63,-346.81 348.5,-338.75 338.1,-340.77 341.63,-346.81"/>
</g>
<!-- 23 -->
<g id="node24" class="node">
<title>23</title>
<path fill="none" stroke="#d8c356" stroke-width="2" d="M1076,-108C1076,-108 1027,-108 1027,-108 1021,-108 1015,-102 1015,-96 1015,-96 1015,-84 1015,-84 1015,-78 1021,-72 1027,-72 1027,-72 1076,-72 1076,-72 1082,-72 1088,-78 1088,-84 1088,-84 1088,-96 1088,-96 1088,-102 1082,-108 1076,-108"/>
<text text-anchor="middle" x="1051.5" y="-87.5" font-family="sans" font-size="10.00">peak_count</text>
</g>
<!-- 23&#45;&gt;0 -->
<g id="edge2" class="edge">
<title>23&#45;&gt;0</title>
<path fill="none" stroke="grey" stroke-width="2" d="M1014.8,-77.83C971.95,-64.79 901.46,-43.34 858.48,-30.26"/>
<polygon fill="grey" stroke="grey" stroke-width="2" points="859.29,-26.84 848.71,-27.28 857.25,-33.54 859.29,-26.84"/>
</g>
<!-- 24 -->
<g id="node25" class="node">
<title>24</title>
<path fill="none" stroke="#c6d856" stroke-width="2" d="M1104.5,-196C1104.5,-196 998.5,-196 998.5,-196 992.5,-196 986.5,-190 986.5,-184 986.5,-184 986.5,-156 986.5,-156 986.5,-150 992.5,-144 998.5,-144 998.5,-144 1104.5,-144 1104.5,-144 1110.5,-144 1116.5,-150 1116.5,-156 1116.5,-156 1116.5,-184 1116.5,-184 1116.5,-190 1110.5,-196 1104.5,-196"/>
<text text-anchor="middle" x="1051.5" y="-184" font-family="sans" font-size="10.00">index_merged</text>
<text text-anchor="middle" x="1051.5" y="-173" font-family="sans" font-size="10.00">output: scGET_sample</text>
<text text-anchor="middle" x="1051.5" y="-162" font-family="sans" font-size="10.00">sample: scGET_sample</text>
<text text-anchor="middle" x="1051.5" y="-151" font-family="sans" font-size="10.00">tn: tnh</text>
</g>
<!-- 24&#45;&gt;23 -->
<g id="edge42" class="edge">
<title>24&#45;&gt;23</title>
<path fill="none" stroke="grey" stroke-width="2" d="M1051.5,-143.89C1051.5,-135.84 1051.5,-126.88 1051.5,-118.66"/>
<polygon fill="grey" stroke="grey" stroke-width="2" points="1055,-118.41 1051.5,-108.41 1048,-118.41 1055,-118.41"/>
</g>
<!-- 25 -->
<g id="node26" class="node">
<title>25</title>
<path fill="none" stroke="#567bd8" stroke-width="2" d="M1180.5,-268C1180.5,-268 1108.5,-268 1108.5,-268 1102.5,-268 1096.5,-262 1096.5,-256 1096.5,-256 1096.5,-244 1096.5,-244 1096.5,-238 1102.5,-232 1108.5,-232 1108.5,-232 1180.5,-232 1180.5,-232 1186.5,-232 1192.5,-238 1192.5,-244 1192.5,-244 1192.5,-256 1192.5,-256 1192.5,-262 1186.5,-268 1180.5,-268"/>
<text text-anchor="middle" x="1144.5" y="-247.5" font-family="sans" font-size="10.00">merge_bam_tnh</text>
</g>
<!-- 25&#45;&gt;23 -->
<g id="edge43" class="edge">
<title>25&#45;&gt;23</title>
<path fill="none" stroke="grey" stroke-width="2" d="M1145.21,-231.97C1145.32,-209.96 1142.74,-171.24 1125.5,-144 1117.82,-131.86 1106.26,-121.65 1094.54,-113.54"/>
<polygon fill="grey" stroke="grey" stroke-width="2" points="1096.33,-110.53 1086.04,-108.01 1092.51,-116.4 1096.33,-110.53"/>
</g>
<!-- 25&#45;&gt;24 -->
<g id="edge44" class="edge">
<title>25&#45;&gt;24</title>
<path fill="none" stroke="grey" stroke-width="2" d="M1123.86,-231.69C1113.77,-223.23 1101.31,-212.77 1089.58,-202.94"/>
<polygon fill="grey" stroke="grey" stroke-width="2" points="1091.53,-200 1081.61,-196.26 1087.03,-205.36 1091.53,-200"/>
</g>
<!-- 26&#45;&gt;25 -->
<g id="edge45" class="edge">
<title>26&#45;&gt;25</title>
<path fill="none" stroke="grey" stroke-width="2" d="M1010.81,-309.13C1034.11,-299 1068.16,-284.19 1096.06,-272.06"/>
<polygon fill="grey" stroke="grey" stroke-width="2" points="1097.49,-275.26 1105.26,-268.06 1094.7,-268.84 1097.49,-275.26"/>
</g>
<!-- 27&#45;&gt;26 -->
<g id="edge51" class="edge">
<title>27&#45;&gt;26</title>
<path fill="none" stroke="grey" stroke-width="2" d="M931.54,-447.88C920.94,-427.81 910.78,-399.28 921.5,-376 927.26,-363.5 937.59,-352.85 948.18,-344.44"/>
<polygon fill="grey" stroke="grey" stroke-width="2" points="950.31,-347.23 956.26,-338.46 946.14,-341.6 950.31,-347.23"/>
</g>
<!-- 28 -->
<g id="node29" class="node">
<title>28</title>
<path fill="none" stroke="#56d87b" stroke-width="2" d="M1025,-412C1025,-412 942,-412 942,-412 936,-412 930,-406 930,-400 930,-400 930,-388 930,-388 930,-382 936,-376 942,-376 942,-376 1025,-376 1025,-376 1031,-376 1037,-382 1037,-388 1037,-388 1037,-400 1037,-400 1037,-406 1031,-412 1025,-412"/>
<text text-anchor="middle" x="983.5" y="-391.5" font-family="sans" font-size="10.00">index_allignement</text>
</g>
<!-- 27&#45;&gt;28 -->
<g id="edge54" class="edge">
<title>27&#45;&gt;28</title>
<path fill="none" stroke="grey" stroke-width="2" d="M959.09,-447.89C962.97,-439.48 967.31,-430.07 971.24,-421.55"/>
<polygon fill="grey" stroke="grey" stroke-width="2" points="974.45,-422.96 975.46,-412.41 968.1,-420.02 974.45,-422.96"/>
</g>
<!-- 28&#45;&gt;26 -->
<g id="edge52" class="edge">
<title>28&#45;&gt;26</title>
<path fill="none" stroke="grey" stroke-width="2" d="M983.5,-375.7C983.5,-367.98 983.5,-358.71 983.5,-350.11"/>
<polygon fill="grey" stroke="grey" stroke-width="2" points="987,-350.1 983.5,-340.1 980,-350.1 987,-350.1"/>
</g>
<!-- 29&#45;&gt;25 -->
<g id="edge46" class="edge">
<title>29&#45;&gt;25</title>
<path fill="none" stroke="grey" stroke-width="2" d="M1144.5,-303.7C1144.5,-295.98 1144.5,-286.71 1144.5,-278.11"/>
<polygon fill="grey" stroke="grey" stroke-width="2" points="1148,-278.1 1144.5,-268.1 1141,-278.1 1148,-278.1"/>
</g>
<!-- 30&#45;&gt;29 -->
<g id="edge57" class="edge">
<title>30&#45;&gt;29</title>
<path fill="none" stroke="grey" stroke-width="2" d="M1140.15,-447.89C1133.53,-437.35 1126.86,-424.62 1123.5,-412 1117.91,-391.03 1124.28,-367.08 1131.43,-349.31"/>
<polygon fill="grey" stroke="grey" stroke-width="2" points="1134.64,-350.7 1135.41,-340.13 1128.22,-347.92 1134.64,-350.7"/>
</g>
<!-- 31 -->
<g id="node32" class="node">
<title>31</title>
<path fill="none" stroke="#56d87b" stroke-width="2" d="M1227,-412C1227,-412 1144,-412 1144,-412 1138,-412 1132,-406 1132,-400 1132,-400 1132,-388 1132,-388 1132,-382 1138,-376 1144,-376 1144,-376 1227,-376 1227,-376 1233,-376 1239,-382 1239,-388 1239,-388 1239,-400 1239,-400 1239,-406 1233,-412 1227,-412"/>
<text text-anchor="middle" x="1185.5" y="-391.5" font-family="sans" font-size="10.00">index_allignement</text>
</g>
<!-- 30&#45;&gt;31 -->
<g id="edge60" class="edge">
<title>30&#45;&gt;31</title>
<path fill="none" stroke="grey" stroke-width="2" d="M1167.19,-447.89C1170.04,-439.66 1173.22,-430.48 1176.12,-422.1"/>
<polygon fill="grey" stroke="grey" stroke-width="2" points="1179.51,-423.01 1179.47,-412.41 1172.89,-420.72 1179.51,-423.01"/>
</g>
<!-- 31&#45;&gt;29 -->
<g id="edge58" class="edge">
<title>31&#45;&gt;29</title>
<path fill="none" stroke="grey" stroke-width="2" d="M1175.37,-375.7C1170.65,-367.64 1164.94,-357.89 1159.72,-348.98"/>
<polygon fill="grey" stroke="grey" stroke-width="2" points="1162.59,-346.96 1154.52,-340.1 1156.55,-350.5 1162.59,-346.96"/>
</g>
<!-- 32&#45;&gt;25 -->
<g id="edge47" class="edge">
<title>32&#45;&gt;25</title>
<path fill="none" stroke="grey" stroke-width="2" d="M1278.19,-309.13C1254.89,-299 1220.84,-284.19 1192.94,-272.06"/>
<polygon fill="grey" stroke="grey" stroke-width="2" points="1194.3,-268.84 1183.74,-268.06 1191.51,-275.26 1194.3,-268.84"/>
</g>
<!-- 33&#45;&gt;32 -->
<g id="edge63" class="edge">
<title>33&#45;&gt;32</title>
<path fill="none" stroke="grey" stroke-width="2" d="M1343.73,-447.73C1337.26,-437.07 1330.28,-424.29 1325.5,-412 1317.71,-391.98 1312.56,-368.2 1309.44,-350.25"/>
<polygon fill="grey" stroke="grey" stroke-width="2" points="1312.86,-349.48 1307.8,-340.18 1305.96,-350.61 1312.86,-349.48"/>
</g>
<!-- 34 -->
<g id="node35" class="node">
<title>34</title>
<path fill="none" stroke="#56d87b" stroke-width="2" d="M1429,-412C1429,-412 1346,-412 1346,-412 1340,-412 1334,-406 1334,-400 1334,-400 1334,-388 1334,-388 1334,-382 1340,-376 1346,-376 1346,-376 1429,-376 1429,-376 1435,-376 1441,-382 1441,-388 1441,-388 1441,-400 1441,-400 1441,-406 1435,-412 1429,-412"/>
<text text-anchor="middle" x="1387.5" y="-391.5" font-family="sans" font-size="10.00">index_allignement</text>
</g>
<!-- 33&#45;&gt;34 -->
<g id="edge66" class="edge">
<title>33&#45;&gt;34</title>
<path fill="none" stroke="grey" stroke-width="2" d="M1369.19,-447.89C1372.04,-439.66 1375.22,-430.48 1378.12,-422.1"/>
<polygon fill="grey" stroke="grey" stroke-width="2" points="1381.51,-423.01 1381.47,-412.41 1374.89,-420.72 1381.51,-423.01"/>
</g>
<!-- 34&#45;&gt;32 -->
<g id="edge64" class="edge">
<title>34&#45;&gt;32</title>
<path fill="none" stroke="grey" stroke-width="2" d="M1367.23,-375.7C1357,-366.97 1344.44,-356.24 1333.32,-346.75"/>
<polygon fill="grey" stroke="grey" stroke-width="2" points="1335.41,-343.94 1325.54,-340.1 1330.87,-349.26 1335.41,-343.94"/>
</g>
<!-- 35&#45;&gt;25 -->
<g id="edge48" class="edge">
<title>35&#45;&gt;25</title>
<path fill="none" stroke="grey" stroke-width="2" d="M1480.22,-315.74C1421.47,-304.41 1281.94,-277.5 1202.48,-262.18"/>
<polygon fill="grey" stroke="grey" stroke-width="2" points="1203.11,-258.74 1192.63,-260.28 1201.79,-265.61 1203.11,-258.74"/>
</g>
<!-- 36&#45;&gt;35 -->
<g id="edge69" class="edge">
<title>36&#45;&gt;35</title>
<path fill="none" stroke="grey" stroke-width="2" d="M1545.73,-447.73C1539.26,-437.07 1532.28,-424.29 1527.5,-412 1519.71,-391.98 1514.56,-368.2 1511.44,-350.25"/>
<polygon fill="grey" stroke="grey" stroke-width="2" points="1514.86,-349.48 1509.8,-340.18 1507.96,-350.61 1514.86,-349.48"/>
</g>
<!-- 37 -->
<g id="node38" class="node">
<title>37</title>
<path fill="none" stroke="#56d87b" stroke-width="2" d="M1631,-412C1631,-412 1548,-412 1548,-412 1542,-412 1536,-406 1536,-400 1536,-400 1536,-388 1536,-388 1536,-382 1542,-376 1548,-376 1548,-376 1631,-376 1631,-376 1637,-376 1643,-382 1643,-388 1643,-388 1643,-400 1643,-400 1643,-406 1637,-412 1631,-412"/>
<text text-anchor="middle" x="1589.5" y="-391.5" font-family="sans" font-size="10.00">index_allignement</text>
</g>
<!-- 36&#45;&gt;37 -->
<g id="edge72" class="edge">
<title>36&#45;&gt;37</title>
<path fill="none" stroke="grey" stroke-width="2" d="M1571.19,-447.89C1574.04,-439.66 1577.22,-430.48 1580.12,-422.1"/>
<polygon fill="grey" stroke="grey" stroke-width="2" points="1583.51,-423.01 1583.47,-412.41 1576.89,-420.72 1583.51,-423.01"/>
</g>
<!-- 37&#45;&gt;35 -->
<g id="edge70" class="edge">
<title>37&#45;&gt;35</title>
<path fill="none" stroke="grey" stroke-width="2" d="M1569.23,-375.7C1559,-366.97 1546.44,-356.24 1535.32,-346.75"/>
<polygon fill="grey" stroke="grey" stroke-width="2" points="1537.41,-343.94 1527.54,-340.1 1532.87,-349.26 1537.41,-343.94"/>
</g>
</g>
</svg>
