<?xml version="1.0" encoding="UTF-8" standalone="no"?>
<!DOCTYPE svg PUBLIC "-//W3C//DTD SVG 1.1//EN"
 "http://www.w3.org/Graphics/SVG/1.1/DTD/svg11.dtd">
<!-- Generated by graphviz version 2.42.3 (20191010.1750)
 -->
<!-- Title: snakemake_dag Pages: 1 -->
<svg width="1681pt" height="652pt"
 viewBox="0.00 0.00 1680.75 652.00" xmlns="http://www.w3.org/2000/svg" xmlns:xlink="http://www.w3.org/1999/xlink">
<g id="graph0" class="graph" transform="scale(1 1) rotate(0) translate(4 648)">
<title>snakemake_dag</title>
<polygon fill="white" stroke="transparent" points="-4,4 -4,-648 1676.75,-648 1676.75,4 -4,4"/>
<!-- 0 -->
<g id="node1" class="node">
<title>0</title>
<path fill="none" stroke="#afd856" stroke-width="2" stroke-dasharray="5,2" d="M836.5,-36C836.5,-36 806.5,-36 806.5,-36 800.5,-36 794.5,-30 794.5,-24 794.5,-24 794.5,-12 794.5,-12 794.5,-6 800.5,0 806.5,0 806.5,0 836.5,0 836.5,0 842.5,0 848.5,-6 848.5,-12 848.5,-12 848.5,-24 848.5,-24 848.5,-30 842.5,-36 836.5,-36"/>
<text text-anchor="middle" x="821.5" y="-15.5" font-family="sans" font-size="10.00">all</text>
</g>
<!-- 1 -->
<g id="node2" class="node">
<title>1</title>
<path fill="none" stroke="#56d882" stroke-width="2" stroke-dasharray="5,2" d="M594.5,-108C594.5,-108 522.5,-108 522.5,-108 516.5,-108 510.5,-102 510.5,-96 510.5,-96 510.5,-84 510.5,-84 510.5,-78 516.5,-72 522.5,-72 522.5,-72 594.5,-72 594.5,-72 600.5,-72 606.5,-78 606.5,-84 606.5,-84 606.5,-96 606.5,-96 606.5,-102 600.5,-108 594.5,-108"/>
<text text-anchor="middle" x="558.5" y="-87.5" font-family="sans" font-size="10.00">merge_bam_tn5</text>
</g>
<!-- 1&#45;&gt;0 -->
<g id="edge1" class="edge">
<title>1&#45;&gt;0</title>
<path fill="none" stroke="grey" stroke-width="2" d="M606.74,-76.16C658.02,-62.51 738.01,-41.22 784.53,-28.84"/>
<polygon fill="grey" stroke="grey" stroke-width="2" points="785.72,-32.15 794.48,-26.19 783.92,-25.38 785.72,-32.15"/>
</g>
<!-- 2 -->
<g id="node3" class="node">
<title>2</title>
<path fill="none" stroke="#80d856" stroke-width="2" stroke-dasharray="5,2" d="M712.5,-180C712.5,-180 682.5,-180 682.5,-180 676.5,-180 670.5,-174 670.5,-168 670.5,-168 670.5,-156 670.5,-156 670.5,-150 676.5,-144 682.5,-144 682.5,-144 712.5,-144 712.5,-144 718.5,-144 724.5,-150 724.5,-156 724.5,-156 724.5,-168 724.5,-168 724.5,-174 718.5,-180 712.5,-180"/>
<text text-anchor="middle" x="697.5" y="-159.5" font-family="sans" font-size="10.00">dedup</text>
</g>
<!-- 2&#45;&gt;1 -->
<g id="edge3" class="edge">
<title>2&#45;&gt;1</title>
<path fill="none" stroke="grey" stroke-width="2" d="M670.37,-147.34C650.79,-137.48 623.95,-123.96 601.47,-112.64"/>
<polygon fill="grey" stroke="grey" stroke-width="2" points="602.96,-109.47 592.45,-108.1 599.81,-115.72 602.96,-109.47"/>
</g>
<!-- 3 -->
<g id="node4" class="node">
<title>3</title>
<path fill="none" stroke="#56d8a9" stroke-width="2" stroke-dasharray="5,2" d="M861,-252C861,-252 820,-252 820,-252 814,-252 808,-246 808,-240 808,-240 808,-228 808,-228 808,-222 814,-216 820,-216 820,-216 861,-216 861,-216 867,-216 873,-222 873,-228 873,-228 873,-240 873,-240 873,-246 867,-252 861,-252"/>
<text text-anchor="middle" x="840.5" y="-231.5" font-family="sans" font-size="10.00">umi_tools</text>
</g>
<!-- 3&#45;&gt;2 -->
<g id="edge7" class="edge">
<title>3&#45;&gt;2</title>
<path fill="none" stroke="grey" stroke-width="2" d="M807.69,-216.94C785.66,-206.16 756.62,-191.94 733.88,-180.81"/>
<polygon fill="grey" stroke="grey" stroke-width="2" points="735.39,-177.65 724.87,-176.4 732.31,-183.94 735.39,-177.65"/>
</g>
<!-- 12 -->
<g id="node13" class="node">
<title>12</title>
<path fill="none" stroke="#80d856" stroke-width="2" stroke-dasharray="5,2" d="M573.5,-180C573.5,-180 543.5,-180 543.5,-180 537.5,-180 531.5,-174 531.5,-168 531.5,-168 531.5,-156 531.5,-156 531.5,-150 537.5,-144 543.5,-144 543.5,-144 573.5,-144 573.5,-144 579.5,-144 585.5,-150 585.5,-156 585.5,-156 585.5,-168 585.5,-168 585.5,-174 579.5,-180 573.5,-180"/>
<text text-anchor="middle" x="558.5" y="-159.5" font-family="sans" font-size="10.00">dedup</text>
</g>
<!-- 3&#45;&gt;12 -->
<g id="edge21" class="edge">
<title>3&#45;&gt;12</title>
<path fill="none" stroke="grey" stroke-width="2" d="M807.88,-224.9C755.05,-211.79 651.14,-186 595.59,-172.21"/>
<polygon fill="grey" stroke="grey" stroke-width="2" points="596.35,-168.79 585.8,-169.78 594.66,-175.58 596.35,-168.79"/>
</g>
<!-- 15 -->
<g id="node16" class="node">
<title>15</title>
<path fill="none" stroke="#80d856" stroke-width="2" stroke-dasharray="5,2" d="M188.5,-180C188.5,-180 158.5,-180 158.5,-180 152.5,-180 146.5,-174 146.5,-168 146.5,-168 146.5,-156 146.5,-156 146.5,-150 152.5,-144 158.5,-144 158.5,-144 188.5,-144 188.5,-144 194.5,-144 200.5,-150 200.5,-156 200.5,-156 200.5,-168 200.5,-168 200.5,-174 194.5,-180 188.5,-180"/>
<text text-anchor="middle" x="173.5" y="-159.5" font-family="sans" font-size="10.00">dedup</text>
</g>
<!-- 3&#45;&gt;15 -->
<g id="edge27" class="edge">
<title>3&#45;&gt;15</title>
<path fill="none" stroke="grey" stroke-width="2" d="M807.95,-225.23C793.23,-221.95 775.56,-218.37 759.5,-216 574.15,-188.71 526.03,-197.54 339.5,-180 295.26,-175.84 244.43,-170.56 210.8,-167"/>
<polygon fill="grey" stroke="grey" stroke-width="2" points="210.83,-163.48 200.51,-165.91 210.09,-170.44 210.83,-163.48"/>
</g>
<!-- 18 -->
<g id="node19" class="node">
<title>18</title>
<path fill="none" stroke="#80d856" stroke-width="2" stroke-dasharray="5,2" d="M390.5,-180C390.5,-180 360.5,-180 360.5,-180 354.5,-180 348.5,-174 348.5,-168 348.5,-168 348.5,-156 348.5,-156 348.5,-150 354.5,-144 360.5,-144 360.5,-144 390.5,-144 390.5,-144 396.5,-144 402.5,-150 402.5,-156 402.5,-156 402.5,-168 402.5,-168 402.5,-174 396.5,-180 390.5,-180"/>
<text text-anchor="middle" x="375.5" y="-159.5" font-family="sans" font-size="10.00">dedup</text>
</g>
<!-- 3&#45;&gt;18 -->
<g id="edge33" class="edge">
<title>3&#45;&gt;18</title>
<path fill="none" stroke="grey" stroke-width="2" d="M807.89,-225.61C793.15,-222.42 775.5,-218.78 759.5,-216 632.99,-194.02 481.76,-175.36 412.93,-167.29"/>
<polygon fill="grey" stroke="grey" stroke-width="2" points="412.94,-163.76 402.6,-166.08 412.13,-170.72 412.94,-163.76"/>
</g>
<!-- 22 -->
<g id="node23" class="node">
<title>22</title>
<path fill="none" stroke="#80d856" stroke-width="2" stroke-dasharray="5,2" d="M998.5,-180C998.5,-180 968.5,-180 968.5,-180 962.5,-180 956.5,-174 956.5,-168 956.5,-168 956.5,-156 956.5,-156 956.5,-150 962.5,-144 968.5,-144 968.5,-144 998.5,-144 998.5,-144 1004.5,-144 1010.5,-150 1010.5,-156 1010.5,-156 1010.5,-168 1010.5,-168 1010.5,-174 1004.5,-180 998.5,-180"/>
<text text-anchor="middle" x="983.5" y="-159.5" font-family="sans" font-size="10.00">dedup</text>
</g>
<!-- 3&#45;&gt;22 -->
<g id="edge43" class="edge">
<title>3&#45;&gt;22</title>
<path fill="none" stroke="grey" stroke-width="2" d="M873.31,-216.94C895.34,-206.16 924.38,-191.94 947.12,-180.81"/>
<polygon fill="grey" stroke="grey" stroke-width="2" points="948.69,-183.94 956.13,-176.4 945.61,-177.65 948.69,-183.94"/>
</g>
<!-- 25 -->
<g id="node26" class="node">
<title>25</title>
<path fill="none" stroke="#80d856" stroke-width="2" stroke-dasharray="5,2" d="M1159.5,-180C1159.5,-180 1129.5,-180 1129.5,-180 1123.5,-180 1117.5,-174 1117.5,-168 1117.5,-168 1117.5,-156 1117.5,-156 1117.5,-150 1123.5,-144 1129.5,-144 1129.5,-144 1159.5,-144 1159.5,-144 1165.5,-144 1171.5,-150 1171.5,-156 1171.5,-156 1171.5,-168 1171.5,-168 1171.5,-174 1165.5,-180 1159.5,-180"/>
<text text-anchor="middle" x="1144.5" y="-159.5" font-family="sans" font-size="10.00">dedup</text>
</g>
<!-- 3&#45;&gt;25 -->
<g id="edge49" class="edge">
<title>3&#45;&gt;25</title>
<path fill="none" stroke="grey" stroke-width="2" d="M873.03,-225.51C929.94,-212.41 1047.19,-185.41 1107.25,-171.58"/>
<polygon fill="grey" stroke="grey" stroke-width="2" points="1108.12,-174.97 1117.08,-169.31 1106.55,-168.15 1108.12,-174.97"/>
</g>
<!-- 28 -->
<g id="node29" class="node">
<title>28</title>
<path fill="none" stroke="#80d856" stroke-width="2" stroke-dasharray="5,2" d="M1320.5,-180C1320.5,-180 1290.5,-180 1290.5,-180 1284.5,-180 1278.5,-174 1278.5,-168 1278.5,-168 1278.5,-156 1278.5,-156 1278.5,-150 1284.5,-144 1290.5,-144 1290.5,-144 1320.5,-144 1320.5,-144 1326.5,-144 1332.5,-150 1332.5,-156 1332.5,-156 1332.5,-168 1332.5,-168 1332.5,-174 1326.5,-180 1320.5,-180"/>
<text text-anchor="middle" x="1305.5" y="-159.5" font-family="sans" font-size="10.00">dedup</text>
</g>
<!-- 3&#45;&gt;28 -->
<g id="edge55" class="edge">
<title>3&#45;&gt;28</title>
<path fill="none" stroke="grey" stroke-width="2" d="M873.11,-225.61C887.85,-222.42 905.5,-218.78 921.5,-216 938.52,-213.04 1175.29,-180.73 1268.33,-168.06"/>
<polygon fill="grey" stroke="grey" stroke-width="2" points="1268.99,-171.5 1278.43,-166.68 1268.05,-164.56 1268.99,-171.5"/>
</g>
<!-- 31 -->
<g id="node32" class="node">
<title>31</title>
<path fill="none" stroke="#80d856" stroke-width="2" stroke-dasharray="5,2" d="M1522.5,-180C1522.5,-180 1492.5,-180 1492.5,-180 1486.5,-180 1480.5,-174 1480.5,-168 1480.5,-168 1480.5,-156 1480.5,-156 1480.5,-150 1486.5,-144 1492.5,-144 1492.5,-144 1522.5,-144 1522.5,-144 1528.5,-144 1534.5,-150 1534.5,-156 1534.5,-156 1534.5,-168 1534.5,-168 1534.5,-174 1528.5,-180 1522.5,-180"/>
<text text-anchor="middle" x="1507.5" y="-159.5" font-family="sans" font-size="10.00">dedup</text>
</g>
<!-- 3&#45;&gt;31 -->
<g id="edge61" class="edge">
<title>3&#45;&gt;31</title>
<path fill="none" stroke="grey" stroke-width="2" d="M873.05,-225.23C887.77,-221.95 905.44,-218.37 921.5,-216 1106.85,-188.71 1154.97,-197.54 1341.5,-180 1385.74,-175.84 1436.57,-170.56 1470.2,-167"/>
<polygon fill="grey" stroke="grey" stroke-width="2" points="1470.91,-170.44 1480.49,-165.91 1470.17,-163.48 1470.91,-170.44"/>
</g>
<!-- 4 -->
<g id="node5" class="node">
<title>4</title>
<path fill="none" stroke="#d88556" stroke-width="2" stroke-dasharray="5,2" d="M866.5,-572C866.5,-572 760.5,-572 760.5,-572 754.5,-572 748.5,-566 748.5,-560 748.5,-560 748.5,-532 748.5,-532 748.5,-526 754.5,-520 760.5,-520 760.5,-520 866.5,-520 866.5,-520 872.5,-520 878.5,-526 878.5,-532 878.5,-532 878.5,-560 878.5,-560 878.5,-566 872.5,-572 866.5,-572"/>
<text text-anchor="middle" x="813.5" y="-560" font-family="sans" font-size="10.00">merge_reads</text>
<text text-anchor="middle" x="813.5" y="-549" font-family="sans" font-size="10.00">output: scGET_sample</text>
<text text-anchor="middle" x="813.5" y="-538" font-family="sans" font-size="10.00">read: 2</text>
<text text-anchor="middle" x="813.5" y="-527" font-family="sans" font-size="10.00">sample: scGET_sample</text>
</g>
<!-- 4&#45;&gt;3 -->
<g id="edge11" class="edge">
<title>4&#45;&gt;3</title>
<path fill="none" stroke="grey" stroke-width="2" d="M815.69,-519.89C820.69,-462.49 832.92,-322.04 838.11,-262.45"/>
<polygon fill="grey" stroke="grey" stroke-width="2" points="841.61,-262.57 838.99,-252.31 834.64,-261.96 841.61,-262.57"/>
</g>
<!-- 7 -->
<g id="node8" class="node">
<title>7</title>
<path fill="none" stroke="#59d856" stroke-width="2" stroke-dasharray="5,2" d="M972,-484C972,-484 937,-484 937,-484 931,-484 925,-478 925,-472 925,-472 925,-460 925,-460 925,-454 931,-448 937,-448 937,-448 972,-448 972,-448 978,-448 984,-454 984,-460 984,-460 984,-472 984,-472 984,-478 978,-484 972,-484"/>
<text text-anchor="middle" x="954.5" y="-463.5" font-family="sans" font-size="10.00">tag_dust</text>
</g>
<!-- 4&#45;&gt;7 -->
<g id="edge15" class="edge">
<title>4&#45;&gt;7</title>
<path fill="none" stroke="grey" stroke-width="2" d="M858.89,-519.89C877.26,-509.73 898.25,-498.12 915.88,-488.37"/>
<polygon fill="grey" stroke="grey" stroke-width="2" points="917.7,-491.36 924.75,-483.46 914.31,-485.23 917.7,-491.36"/>
</g>
<!-- 5 -->
<g id="node6" class="node">
<title>5</title>
<path fill="none" stroke="#d8ac56" stroke-width="2" stroke-dasharray="5,2" d="M979,-644C979,-644 944,-644 944,-644 938,-644 932,-638 932,-632 932,-632 932,-620 932,-620 932,-614 938,-608 944,-608 944,-608 979,-608 979,-608 985,-608 991,-614 991,-620 991,-620 991,-632 991,-632 991,-638 985,-644 979,-644"/>
<text text-anchor="middle" x="961.5" y="-623.5" font-family="sans" font-size="10.00">file_read</text>
</g>
<!-- 5&#45;&gt;4 -->
<g id="edge12" class="edge">
<title>5&#45;&gt;4</title>
<path fill="none" stroke="grey" stroke-width="2" d="M931.91,-609.4C914.19,-600.07 891.09,-587.89 870,-576.78"/>
<polygon fill="grey" stroke="grey" stroke-width="2" points="871.58,-573.66 861.1,-572.09 868.32,-579.85 871.58,-573.66"/>
</g>
<!-- 8 -->
<g id="node9" class="node">
<title>8</title>
<path fill="none" stroke="#d88556" stroke-width="2" stroke-dasharray="5,2" d="M1162.5,-572C1162.5,-572 1056.5,-572 1056.5,-572 1050.5,-572 1044.5,-566 1044.5,-560 1044.5,-560 1044.5,-532 1044.5,-532 1044.5,-526 1050.5,-520 1056.5,-520 1056.5,-520 1162.5,-520 1162.5,-520 1168.5,-520 1174.5,-526 1174.5,-532 1174.5,-532 1174.5,-560 1174.5,-560 1174.5,-566 1168.5,-572 1162.5,-572"/>
<text text-anchor="middle" x="1109.5" y="-560" font-family="sans" font-size="10.00">merge_reads</text>
<text text-anchor="middle" x="1109.5" y="-549" font-family="sans" font-size="10.00">output: scGET_sample</text>
<text text-anchor="middle" x="1109.5" y="-538" font-family="sans" font-size="10.00">read: 1</text>
<text text-anchor="middle" x="1109.5" y="-527" font-family="sans" font-size="10.00">sample: scGET_sample</text>
</g>
<!-- 5&#45;&gt;8 -->
<g id="edge17" class="edge">
<title>5&#45;&gt;8</title>
<path fill="none" stroke="grey" stroke-width="2" d="M991.09,-609.4C1008.81,-600.07 1031.91,-587.89 1053,-576.78"/>
<polygon fill="grey" stroke="grey" stroke-width="2" points="1054.68,-579.85 1061.9,-572.09 1051.42,-573.66 1054.68,-579.85"/>
</g>
<!-- 9 -->
<g id="node10" class="node">
<title>9</title>
<path fill="none" stroke="#d88556" stroke-width="2" stroke-dasharray="5,2" d="M1014.5,-572C1014.5,-572 908.5,-572 908.5,-572 902.5,-572 896.5,-566 896.5,-560 896.5,-560 896.5,-532 896.5,-532 896.5,-526 902.5,-520 908.5,-520 908.5,-520 1014.5,-520 1014.5,-520 1020.5,-520 1026.5,-526 1026.5,-532 1026.5,-532 1026.5,-560 1026.5,-560 1026.5,-566 1020.5,-572 1014.5,-572"/>
<text text-anchor="middle" x="961.5" y="-560" font-family="sans" font-size="10.00">merge_reads</text>
<text text-anchor="middle" x="961.5" y="-549" font-family="sans" font-size="10.00">output: scGET_sample</text>
<text text-anchor="middle" x="961.5" y="-538" font-family="sans" font-size="10.00">read: 3</text>
<text text-anchor="middle" x="961.5" y="-527" font-family="sans" font-size="10.00">sample: scGET_sample</text>
</g>
<!-- 5&#45;&gt;9 -->
<g id="edge18" class="edge">
<title>5&#45;&gt;9</title>
<path fill="none" stroke="grey" stroke-width="2" d="M961.5,-607.69C961.5,-600.21 961.5,-591.16 961.5,-582.36"/>
<polygon fill="grey" stroke="grey" stroke-width="2" points="965,-582.26 961.5,-572.26 958,-582.26 965,-582.26"/>
</g>
<!-- 6 -->
<g id="node7" class="node">
<title>6</title>
<path fill="none" stroke="#56d8d8" stroke-width="2" stroke-dasharray="5,2" d="M967.5,-412C967.5,-412 927.5,-412 927.5,-412 921.5,-412 915.5,-406 915.5,-400 915.5,-400 915.5,-388 915.5,-388 915.5,-382 921.5,-376 927.5,-376 927.5,-376 967.5,-376 967.5,-376 973.5,-376 979.5,-382 979.5,-388 979.5,-388 979.5,-400 979.5,-400 979.5,-406 973.5,-412 967.5,-412"/>
<text text-anchor="middle" x="947.5" y="-391.5" font-family="sans" font-size="10.00">compress</text>
</g>
<!-- 6&#45;&gt;2 -->
<g id="edge8" class="edge">
<title>6&#45;&gt;2</title>
<path fill="none" stroke="grey" stroke-width="2" d="M915.03,-390.46C850.81,-384.85 710.55,-369.5 673.5,-340 628.3,-304.02 610.12,-268.38 634.5,-216 640.46,-203.2 651.21,-192.38 662.15,-183.93"/>
<polygon fill="grey" stroke="grey" stroke-width="2" points="664.42,-186.61 670.49,-177.93 660.33,-180.93 664.42,-186.61"/>
</g>
<!-- 10 -->
<g id="node11" class="node">
<title>10</title>
<path fill="none" stroke="#d85656" stroke-width="2" stroke-dasharray="5,2" d="M800.5,-340C800.5,-340 694.5,-340 694.5,-340 688.5,-340 682.5,-334 682.5,-328 682.5,-328 682.5,-300 682.5,-300 682.5,-294 688.5,-288 694.5,-288 694.5,-288 800.5,-288 800.5,-288 806.5,-288 812.5,-294 812.5,-300 812.5,-300 812.5,-328 812.5,-328 812.5,-334 806.5,-340 800.5,-340"/>
<text text-anchor="middle" x="747.5" y="-328" font-family="sans" font-size="10.00">bwa</text>
<text text-anchor="middle" x="747.5" y="-317" font-family="sans" font-size="10.00">barcode: CGTACTAG</text>
<text text-anchor="middle" x="747.5" y="-306" font-family="sans" font-size="10.00">output: scGET_sample</text>
<text text-anchor="middle" x="747.5" y="-295" font-family="sans" font-size="10.00">sample: scGET_sample</text>
</g>
<!-- 6&#45;&gt;10 -->
<g id="edge19" class="edge">
<title>6&#45;&gt;10</title>
<path fill="none" stroke="grey" stroke-width="2" d="M915.37,-380.47C890.04,-370.59 853.72,-356.43 821.33,-343.8"/>
<polygon fill="grey" stroke="grey" stroke-width="2" points="822.46,-340.48 811.87,-340.11 819.92,-347 822.46,-340.48"/>
</g>
<!-- 6&#45;&gt;12 -->
<g id="edge22" class="edge">
<title>6&#45;&gt;12</title>
<path fill="none" stroke="grey" stroke-width="2" d="M915.24,-391.66C842.86,-388.05 670.45,-375.82 626.5,-340 580.34,-302.38 565.46,-229.53 560.7,-190.04"/>
<polygon fill="grey" stroke="grey" stroke-width="2" points="564.18,-189.64 559.63,-180.07 557.22,-190.39 564.18,-189.64"/>
</g>
<!-- 13 -->
<g id="node14" class="node">
<title>13</title>
<path fill="none" stroke="#d85656" stroke-width="2" stroke-dasharray="5,2" d="M537.5,-340C537.5,-340 431.5,-340 431.5,-340 425.5,-340 419.5,-334 419.5,-328 419.5,-328 419.5,-300 419.5,-300 419.5,-294 425.5,-288 431.5,-288 431.5,-288 537.5,-288 537.5,-288 543.5,-288 549.5,-294 549.5,-300 549.5,-300 549.5,-328 549.5,-328 549.5,-334 543.5,-340 537.5,-340"/>
<text text-anchor="middle" x="484.5" y="-328" font-family="sans" font-size="10.00">bwa</text>
<text text-anchor="middle" x="484.5" y="-317" font-family="sans" font-size="10.00">barcode: TCCTGAGC</text>
<text text-anchor="middle" x="484.5" y="-306" font-family="sans" font-size="10.00">output: scGET_sample</text>
<text text-anchor="middle" x="484.5" y="-295" font-family="sans" font-size="10.00">sample: scGET_sample</text>
</g>
<!-- 6&#45;&gt;13 -->
<g id="edge25" class="edge">
<title>6&#45;&gt;13</title>
<path fill="none" stroke="grey" stroke-width="2" d="M915.31,-390.41C848.91,-384.67 692.17,-369.02 563.5,-340 562.24,-339.72 560.97,-339.42 559.69,-339.11"/>
<polygon fill="grey" stroke="grey" stroke-width="2" points="560.35,-335.67 549.79,-336.6 558.62,-342.45 560.35,-335.67"/>
</g>
<!-- 6&#45;&gt;15 -->
<g id="edge28" class="edge">
<title>6&#45;&gt;15</title>
<path fill="none" stroke="grey" stroke-width="2" d="M915.15,-392.95C779.61,-392.42 262.06,-387.32 208.5,-340 166.03,-302.48 166.11,-229.59 169.81,-190.07"/>
<polygon fill="grey" stroke="grey" stroke-width="2" points="173.29,-190.41 170.88,-180.09 166.33,-189.65 173.29,-190.41"/>
</g>
<!-- 16 -->
<g id="node17" class="node">
<title>16</title>
<path fill="none" stroke="#d85656" stroke-width="2" stroke-dasharray="5,2" d="M133.5,-340C133.5,-340 27.5,-340 27.5,-340 21.5,-340 15.5,-334 15.5,-328 15.5,-328 15.5,-300 15.5,-300 15.5,-294 21.5,-288 27.5,-288 27.5,-288 133.5,-288 133.5,-288 139.5,-288 145.5,-294 145.5,-300 145.5,-300 145.5,-328 145.5,-328 145.5,-334 139.5,-340 133.5,-340"/>
<text text-anchor="middle" x="80.5" y="-328" font-family="sans" font-size="10.00">bwa</text>
<text text-anchor="middle" x="80.5" y="-317" font-family="sans" font-size="10.00">barcode: TCATGAGC</text>
<text text-anchor="middle" x="80.5" y="-306" font-family="sans" font-size="10.00">output: scGET_sample</text>
<text text-anchor="middle" x="80.5" y="-295" font-family="sans" font-size="10.00">sample: scGET_sample</text>
</g>
<!-- 6&#45;&gt;16 -->
<g id="edge31" class="edge">
<title>6&#45;&gt;16</title>
<path fill="none" stroke="grey" stroke-width="2" d="M915.25,-393.58C807.26,-394.92 448.83,-394.69 159.5,-340 158.23,-339.76 156.95,-339.51 155.66,-339.24"/>
<polygon fill="grey" stroke="grey" stroke-width="2" points="156.24,-335.78 145.72,-336.96 154.68,-342.6 156.24,-335.78"/>
</g>
<!-- 6&#45;&gt;18 -->
<g id="edge34" class="edge">
<title>6&#45;&gt;18</title>
<path fill="none" stroke="grey" stroke-width="2" d="M915.39,-392.03C805.33,-388.39 448,-374.04 410.5,-340 368.64,-302.01 368.4,-229.63 371.91,-190.22"/>
<polygon fill="grey" stroke="grey" stroke-width="2" points="375.39,-190.57 372.94,-180.26 368.43,-189.85 375.39,-190.57"/>
</g>
<!-- 19 -->
<g id="node20" class="node">
<title>19</title>
<path fill="none" stroke="#d85656" stroke-width="2" stroke-dasharray="5,2" d="M335.5,-340C335.5,-340 229.5,-340 229.5,-340 223.5,-340 217.5,-334 217.5,-328 217.5,-328 217.5,-300 217.5,-300 217.5,-294 223.5,-288 229.5,-288 229.5,-288 335.5,-288 335.5,-288 341.5,-288 347.5,-294 347.5,-300 347.5,-300 347.5,-328 347.5,-328 347.5,-334 341.5,-340 335.5,-340"/>
<text text-anchor="middle" x="282.5" y="-328" font-family="sans" font-size="10.00">bwa</text>
<text text-anchor="middle" x="282.5" y="-317" font-family="sans" font-size="10.00">barcode: CCTGAGAT</text>
<text text-anchor="middle" x="282.5" y="-306" font-family="sans" font-size="10.00">output: scGET_sample</text>
<text text-anchor="middle" x="282.5" y="-295" font-family="sans" font-size="10.00">sample: scGET_sample</text>
</g>
<!-- 6&#45;&gt;19 -->
<g id="edge37" class="edge">
<title>6&#45;&gt;19</title>
<path fill="none" stroke="grey" stroke-width="2" d="M915.39,-392.52C826.47,-390.69 569.81,-381.87 361.5,-340 360.23,-339.74 358.95,-339.48 357.67,-339.2"/>
<polygon fill="grey" stroke="grey" stroke-width="2" points="358.28,-335.74 347.74,-336.84 356.66,-342.56 358.28,-335.74"/>
</g>
<!-- 6&#45;&gt;22 -->
<g id="edge44" class="edge">
<title>6&#45;&gt;22</title>
<path fill="none" stroke="grey" stroke-width="2" d="M979.85,-376.47C994.49,-367.49 1010.86,-355.12 1021.5,-340 1044.89,-306.74 1040.89,-292.27 1046.5,-252 1048.71,-236.15 1053.25,-230.51 1046.5,-216 1040.54,-203.2 1029.79,-192.38 1018.85,-183.93"/>
<polygon fill="grey" stroke="grey" stroke-width="2" points="1020.67,-180.93 1010.51,-177.93 1016.58,-186.61 1020.67,-180.93"/>
</g>
<!-- 23 -->
<g id="node24" class="node">
<title>23</title>
<path fill="none" stroke="#d85656" stroke-width="2" stroke-dasharray="5,2" d="M1000.5,-340C1000.5,-340 894.5,-340 894.5,-340 888.5,-340 882.5,-334 882.5,-328 882.5,-328 882.5,-300 882.5,-300 882.5,-294 888.5,-288 894.5,-288 894.5,-288 1000.5,-288 1000.5,-288 1006.5,-288 1012.5,-294 1012.5,-300 1012.5,-300 1012.5,-328 1012.5,-328 1012.5,-334 1006.5,-340 1000.5,-340"/>
<text text-anchor="middle" x="947.5" y="-328" font-family="sans" font-size="10.00">bwa</text>
<text text-anchor="middle" x="947.5" y="-317" font-family="sans" font-size="10.00">barcode: TAAGGCGA</text>
<text text-anchor="middle" x="947.5" y="-306" font-family="sans" font-size="10.00">output: scGET_sample</text>
<text text-anchor="middle" x="947.5" y="-295" font-family="sans" font-size="10.00">sample: scGET_sample</text>
</g>
<!-- 6&#45;&gt;23 -->
<g id="edge47" class="edge">
<title>6&#45;&gt;23</title>
<path fill="none" stroke="grey" stroke-width="2" d="M947.5,-375.69C947.5,-368.21 947.5,-359.16 947.5,-350.36"/>
<polygon fill="grey" stroke="grey" stroke-width="2" points="951,-350.26 947.5,-340.26 944,-350.26 951,-350.26"/>
</g>
<!-- 6&#45;&gt;25 -->
<g id="edge50" class="edge">
<title>6&#45;&gt;25</title>
<path fill="none" stroke="grey" stroke-width="2" d="M979.6,-391.49C1046.46,-387.67 1197.38,-375.26 1232.5,-340 1271.71,-300.63 1277.53,-263.38 1248.5,-216 1233.96,-192.26 1205.07,-178.74 1181.43,-171.3"/>
<polygon fill="grey" stroke="grey" stroke-width="2" points="1182.25,-167.9 1171.67,-168.48 1180.3,-174.62 1182.25,-167.9"/>
</g>
<!-- 26 -->
<g id="node27" class="node">
<title>26</title>
<path fill="none" stroke="#d85656" stroke-width="2" stroke-dasharray="5,2" d="M1211.5,-340C1211.5,-340 1105.5,-340 1105.5,-340 1099.5,-340 1093.5,-334 1093.5,-328 1093.5,-328 1093.5,-300 1093.5,-300 1093.5,-294 1099.5,-288 1105.5,-288 1105.5,-288 1211.5,-288 1211.5,-288 1217.5,-288 1223.5,-294 1223.5,-300 1223.5,-300 1223.5,-328 1223.5,-328 1223.5,-334 1217.5,-340 1211.5,-340"/>
<text text-anchor="middle" x="1158.5" y="-328" font-family="sans" font-size="10.00">bwa</text>
<text text-anchor="middle" x="1158.5" y="-317" font-family="sans" font-size="10.00">barcode: GCTACGCT</text>
<text text-anchor="middle" x="1158.5" y="-306" font-family="sans" font-size="10.00">output: scGET_sample</text>
<text text-anchor="middle" x="1158.5" y="-295" font-family="sans" font-size="10.00">sample: scGET_sample</text>
</g>
<!-- 6&#45;&gt;26 -->
<g id="edge53" class="edge">
<title>6&#45;&gt;26</title>
<path fill="none" stroke="grey" stroke-width="2" d="M979.55,-381.15C1007.17,-370.94 1048.12,-355.8 1083.89,-342.58"/>
<polygon fill="grey" stroke="grey" stroke-width="2" points="1085.17,-345.84 1093.34,-339.09 1082.75,-339.27 1085.17,-345.84"/>
</g>
<!-- 6&#45;&gt;28 -->
<g id="edge56" class="edge">
<title>6&#45;&gt;28</title>
<path fill="none" stroke="grey" stroke-width="2" d="M979.83,-391.69C1083.26,-387.21 1401.2,-371 1434.5,-340 1475.17,-302.14 1482.34,-261.54 1450.5,-216 1426.35,-181.46 1377.17,-169.36 1342.81,-165.16"/>
<polygon fill="grey" stroke="grey" stroke-width="2" points="1342.98,-161.66 1332.67,-164.09 1342.25,-168.62 1342.98,-161.66"/>
</g>
<!-- 29 -->
<g id="node30" class="node">
<title>29</title>
<path fill="none" stroke="#d85656" stroke-width="2" stroke-dasharray="5,2" d="M1413.5,-340C1413.5,-340 1307.5,-340 1307.5,-340 1301.5,-340 1295.5,-334 1295.5,-328 1295.5,-328 1295.5,-300 1295.5,-300 1295.5,-294 1301.5,-288 1307.5,-288 1307.5,-288 1413.5,-288 1413.5,-288 1419.5,-288 1425.5,-294 1425.5,-300 1425.5,-300 1425.5,-328 1425.5,-328 1425.5,-334 1419.5,-340 1413.5,-340"/>
<text text-anchor="middle" x="1360.5" y="-328" font-family="sans" font-size="10.00">bwa</text>
<text text-anchor="middle" x="1360.5" y="-317" font-family="sans" font-size="10.00">barcode: AGGCTCCG</text>
<text text-anchor="middle" x="1360.5" y="-306" font-family="sans" font-size="10.00">output: scGET_sample</text>
<text text-anchor="middle" x="1360.5" y="-295" font-family="sans" font-size="10.00">sample: scGET_sample</text>
</g>
<!-- 6&#45;&gt;29 -->
<g id="edge59" class="edge">
<title>6&#45;&gt;29</title>
<path fill="none" stroke="grey" stroke-width="2" d="M979.58,-389.52C1039.46,-382.68 1172.08,-365.84 1281.5,-340 1282.76,-339.7 1284.03,-339.39 1285.31,-339.08"/>
<polygon fill="grey" stroke="grey" stroke-width="2" points="1286.4,-342.41 1295.18,-336.5 1284.62,-335.64 1286.4,-342.41"/>
</g>
<!-- 6&#45;&gt;31 -->
<g id="edge62" class="edge">
<title>6&#45;&gt;31</title>
<path fill="none" stroke="grey" stroke-width="2" d="M979.85,-392.79C1109.56,-391.64 1587.28,-384.39 1636.5,-340 1677.76,-302.78 1684.34,-261.54 1652.5,-216 1628.35,-181.46 1579.17,-169.36 1544.81,-165.16"/>
<polygon fill="grey" stroke="grey" stroke-width="2" points="1544.98,-161.66 1534.67,-164.09 1544.25,-168.62 1544.98,-161.66"/>
</g>
<!-- 32 -->
<g id="node33" class="node">
<title>32</title>
<path fill="none" stroke="#d85656" stroke-width="2" stroke-dasharray="5,2" d="M1615.5,-340C1615.5,-340 1509.5,-340 1509.5,-340 1503.5,-340 1497.5,-334 1497.5,-328 1497.5,-328 1497.5,-300 1497.5,-300 1497.5,-294 1503.5,-288 1509.5,-288 1509.5,-288 1615.5,-288 1615.5,-288 1621.5,-288 1627.5,-294 1627.5,-300 1627.5,-300 1627.5,-328 1627.5,-328 1627.5,-334 1621.5,-340 1615.5,-340"/>
<text text-anchor="middle" x="1562.5" y="-328" font-family="sans" font-size="10.00">bwa</text>
<text text-anchor="middle" x="1562.5" y="-317" font-family="sans" font-size="10.00">barcode: CTGCGCAT</text>
<text text-anchor="middle" x="1562.5" y="-306" font-family="sans" font-size="10.00">output: scGET_sample</text>
<text text-anchor="middle" x="1562.5" y="-295" font-family="sans" font-size="10.00">sample: scGET_sample</text>
</g>
<!-- 6&#45;&gt;32 -->
<g id="edge65" class="edge">
<title>6&#45;&gt;32</title>
<path fill="none" stroke="grey" stroke-width="2" d="M979.56,-392.15C1063.28,-389.43 1295.04,-378.7 1483.5,-340 1484.77,-339.74 1486.04,-339.47 1487.33,-339.18"/>
<polygon fill="grey" stroke="grey" stroke-width="2" points="1488.35,-342.54 1497.25,-336.8 1486.71,-335.73 1488.35,-342.54"/>
</g>
<!-- 7&#45;&gt;6 -->
<g id="edge13" class="edge">
<title>7&#45;&gt;6</title>
<path fill="none" stroke="grey" stroke-width="2" d="M952.77,-447.7C952,-439.98 951.07,-430.71 950.21,-422.11"/>
<polygon fill="grey" stroke="grey" stroke-width="2" points="953.69,-421.71 949.21,-412.1 946.72,-422.4 953.69,-421.71"/>
</g>
<!-- 8&#45;&gt;7 -->
<g id="edge14" class="edge">
<title>8&#45;&gt;7</title>
<path fill="none" stroke="grey" stroke-width="2" d="M1059.6,-519.89C1038.21,-509.13 1013.59,-496.74 993.56,-486.66"/>
<polygon fill="grey" stroke="grey" stroke-width="2" points="994.93,-483.43 984.42,-482.06 991.78,-489.68 994.93,-483.43"/>
</g>
<!-- 9&#45;&gt;7 -->
<g id="edge16" class="edge">
<title>9&#45;&gt;7</title>
<path fill="none" stroke="grey" stroke-width="2" d="M959.25,-519.89C958.52,-511.75 957.7,-502.68 956.96,-494.38"/>
<polygon fill="grey" stroke="grey" stroke-width="2" points="960.44,-494.06 956.06,-484.41 953.47,-494.68 960.44,-494.06"/>
</g>
<!-- 10&#45;&gt;2 -->
<g id="edge9" class="edge">
<title>10&#45;&gt;2</title>
<path fill="none" stroke="grey" stroke-width="2" d="M757.72,-287.95C764.36,-267.67 770.01,-238.81 759.5,-216 753.74,-203.5 743.41,-192.85 732.82,-184.44"/>
<polygon fill="grey" stroke="grey" stroke-width="2" points="734.86,-181.6 724.74,-178.46 730.69,-187.23 734.86,-181.6"/>
</g>
<!-- 11 -->
<g id="node12" class="node">
<title>11</title>
<path fill="none" stroke="#5682d8" stroke-width="2" stroke-dasharray="5,2" d="M739,-252C739,-252 656,-252 656,-252 650,-252 644,-246 644,-240 644,-240 644,-228 644,-228 644,-222 650,-216 656,-216 656,-216 739,-216 739,-216 745,-216 751,-222 751,-228 751,-228 751,-240 751,-240 751,-246 745,-252 739,-252"/>
<text text-anchor="middle" x="697.5" y="-231.5" font-family="sans" font-size="10.00">index_allignement</text>
</g>
<!-- 10&#45;&gt;11 -->
<g id="edge20" class="edge">
<title>10&#45;&gt;11</title>
<path fill="none" stroke="grey" stroke-width="2" d="M731.4,-287.89C725.9,-279.3 719.72,-269.67 714.17,-261.01"/>
<polygon fill="grey" stroke="grey" stroke-width="2" points="717,-258.94 708.66,-252.41 711.11,-262.72 717,-258.94"/>
</g>
<!-- 11&#45;&gt;2 -->
<g id="edge10" class="edge">
<title>11&#45;&gt;2</title>
<path fill="none" stroke="grey" stroke-width="2" d="M697.5,-215.7C697.5,-207.98 697.5,-198.71 697.5,-190.11"/>
<polygon fill="grey" stroke="grey" stroke-width="2" points="701,-190.1 697.5,-180.1 694,-190.1 701,-190.1"/>
</g>
<!-- 12&#45;&gt;1 -->
<g id="edge4" class="edge">
<title>12&#45;&gt;1</title>
<path fill="none" stroke="grey" stroke-width="2" d="M558.5,-143.7C558.5,-135.98 558.5,-126.71 558.5,-118.11"/>
<polygon fill="grey" stroke="grey" stroke-width="2" points="562,-118.1 558.5,-108.1 555,-118.1 562,-118.1"/>
</g>
<!-- 13&#45;&gt;12 -->
<g id="edge23" class="edge">
<title>13&#45;&gt;12</title>
<path fill="none" stroke="grey" stroke-width="2" d="M499.77,-287.81C506.14,-276.94 513.45,-263.99 519.5,-252 529.83,-231.51 540.2,-207.66 547.64,-189.81"/>
<polygon fill="grey" stroke="grey" stroke-width="2" points="550.98,-190.89 551.56,-180.32 544.51,-188.22 550.98,-190.89"/>
</g>
<!-- 14 -->
<g id="node15" class="node">
<title>14</title>
<path fill="none" stroke="#5682d8" stroke-width="2" stroke-dasharray="5,2" d="M499,-252C499,-252 416,-252 416,-252 410,-252 404,-246 404,-240 404,-240 404,-228 404,-228 404,-222 410,-216 416,-216 416,-216 499,-216 499,-216 505,-216 511,-222 511,-228 511,-228 511,-240 511,-240 511,-246 505,-252 499,-252"/>
<text text-anchor="middle" x="457.5" y="-231.5" font-family="sans" font-size="10.00">index_allignement</text>
</g>
<!-- 13&#45;&gt;14 -->
<g id="edge26" class="edge">
<title>13&#45;&gt;14</title>
<path fill="none" stroke="grey" stroke-width="2" d="M475.81,-287.89C472.96,-279.66 469.78,-270.48 466.88,-262.1"/>
<polygon fill="grey" stroke="grey" stroke-width="2" points="470.11,-260.72 463.53,-252.41 463.49,-263.01 470.11,-260.72"/>
</g>
<!-- 14&#45;&gt;12 -->
<g id="edge24" class="edge">
<title>14&#45;&gt;12</title>
<path fill="none" stroke="grey" stroke-width="2" d="M482.21,-215.88C495.17,-206.89 511.23,-195.76 525.27,-186.03"/>
<polygon fill="grey" stroke="grey" stroke-width="2" points="527.47,-188.76 533.7,-180.19 523.48,-183.01 527.47,-188.76"/>
</g>
<!-- 15&#45;&gt;1 -->
<g id="edge5" class="edge">
<title>15&#45;&gt;1</title>
<path fill="none" stroke="grey" stroke-width="2" d="M200.57,-156.08C262.58,-144.8 416.03,-116.9 500.48,-101.55"/>
<polygon fill="grey" stroke="grey" stroke-width="2" points="501.22,-104.97 510.43,-99.74 499.96,-98.09 501.22,-104.97"/>
</g>
<!-- 16&#45;&gt;15 -->
<g id="edge29" class="edge">
<title>16&#45;&gt;15</title>
<path fill="none" stroke="grey" stroke-width="2" d="M96.07,-287.89C113.07,-260.47 140.17,-216.76 157.39,-188.99"/>
<polygon fill="grey" stroke="grey" stroke-width="2" points="160.52,-190.57 162.82,-180.23 154.57,-186.88 160.52,-190.57"/>
</g>
<!-- 17 -->
<g id="node18" class="node">
<title>17</title>
<path fill="none" stroke="#5682d8" stroke-width="2" stroke-dasharray="5,2" d="M95,-252C95,-252 12,-252 12,-252 6,-252 0,-246 0,-240 0,-240 0,-228 0,-228 0,-222 6,-216 12,-216 12,-216 95,-216 95,-216 101,-216 107,-222 107,-228 107,-228 107,-240 107,-240 107,-246 101,-252 95,-252"/>
<text text-anchor="middle" x="53.5" y="-231.5" font-family="sans" font-size="10.00">index_allignement</text>
</g>
<!-- 16&#45;&gt;17 -->
<g id="edge32" class="edge">
<title>16&#45;&gt;17</title>
<path fill="none" stroke="grey" stroke-width="2" d="M71.81,-287.89C68.96,-279.66 65.78,-270.48 62.88,-262.1"/>
<polygon fill="grey" stroke="grey" stroke-width="2" points="66.11,-260.72 59.53,-252.41 59.49,-263.01 66.11,-260.72"/>
</g>
<!-- 17&#45;&gt;15 -->
<g id="edge30" class="edge">
<title>17&#45;&gt;15</title>
<path fill="none" stroke="grey" stroke-width="2" d="M82.86,-215.88C99.4,-206.23 120.19,-194.1 137.69,-183.89"/>
<polygon fill="grey" stroke="grey" stroke-width="2" points="139.63,-186.81 146.5,-178.75 136.1,-180.77 139.63,-186.81"/>
</g>
<!-- 18&#45;&gt;1 -->
<g id="edge6" class="edge">
<title>18&#45;&gt;1</title>
<path fill="none" stroke="grey" stroke-width="2" d="M402.5,-150.67C429.2,-140.46 470.79,-124.55 504.32,-111.72"/>
<polygon fill="grey" stroke="grey" stroke-width="2" points="505.9,-114.87 513.99,-108.02 503.4,-108.33 505.9,-114.87"/>
</g>
<!-- 19&#45;&gt;18 -->
<g id="edge35" class="edge">
<title>19&#45;&gt;18</title>
<path fill="none" stroke="grey" stroke-width="2" d="M298.07,-287.89C315.07,-260.47 342.17,-216.76 359.39,-188.99"/>
<polygon fill="grey" stroke="grey" stroke-width="2" points="362.52,-190.57 364.82,-180.23 356.57,-186.88 362.52,-190.57"/>
</g>
<!-- 20 -->
<g id="node21" class="node">
<title>20</title>
<path fill="none" stroke="#5682d8" stroke-width="2" stroke-dasharray="5,2" d="M297,-252C297,-252 214,-252 214,-252 208,-252 202,-246 202,-240 202,-240 202,-228 202,-228 202,-222 208,-216 214,-216 214,-216 297,-216 297,-216 303,-216 309,-222 309,-228 309,-228 309,-240 309,-240 309,-246 303,-252 297,-252"/>
<text text-anchor="middle" x="255.5" y="-231.5" font-family="sans" font-size="10.00">index_allignement</text>
</g>
<!-- 19&#45;&gt;20 -->
<g id="edge38" class="edge">
<title>19&#45;&gt;20</title>
<path fill="none" stroke="grey" stroke-width="2" d="M273.81,-287.89C270.96,-279.66 267.78,-270.48 264.88,-262.1"/>
<polygon fill="grey" stroke="grey" stroke-width="2" points="268.11,-260.72 261.53,-252.41 261.49,-263.01 268.11,-260.72"/>
</g>
<!-- 20&#45;&gt;18 -->
<g id="edge36" class="edge">
<title>20&#45;&gt;18</title>
<path fill="none" stroke="grey" stroke-width="2" d="M284.86,-215.88C301.4,-206.23 322.19,-194.1 339.69,-183.89"/>
<polygon fill="grey" stroke="grey" stroke-width="2" points="341.63,-186.81 348.5,-178.75 338.1,-180.77 341.63,-186.81"/>
</g>
<!-- 21 -->
<g id="node22" class="node">
<title>21</title>
<path fill="none" stroke="#d6d856" stroke-width="2" stroke-dasharray="5,2" d="M1180.5,-108C1180.5,-108 1108.5,-108 1108.5,-108 1102.5,-108 1096.5,-102 1096.5,-96 1096.5,-96 1096.5,-84 1096.5,-84 1096.5,-78 1102.5,-72 1108.5,-72 1108.5,-72 1180.5,-72 1180.5,-72 1186.5,-72 1192.5,-78 1192.5,-84 1192.5,-84 1192.5,-96 1192.5,-96 1192.5,-102 1186.5,-108 1180.5,-108"/>
<text text-anchor="middle" x="1144.5" y="-87.5" font-family="sans" font-size="10.00">merge_bam_tnh</text>
</g>
<!-- 21&#45;&gt;0 -->
<g id="edge2" class="edge">
<title>21&#45;&gt;0</title>
<path fill="none" stroke="grey" stroke-width="2" d="M1096.49,-78.6C1031.67,-64.55 917.53,-39.81 858.77,-27.08"/>
<polygon fill="grey" stroke="grey" stroke-width="2" points="859.32,-23.61 848.8,-24.92 857.84,-30.46 859.32,-23.61"/>
</g>
<!-- 22&#45;&gt;21 -->
<g id="edge39" class="edge">
<title>22&#45;&gt;21</title>
<path fill="none" stroke="grey" stroke-width="2" d="M1010.81,-149.13C1034.11,-139 1068.16,-124.19 1096.06,-112.06"/>
<polygon fill="grey" stroke="grey" stroke-width="2" points="1097.49,-115.26 1105.26,-108.06 1094.7,-108.84 1097.49,-115.26"/>
</g>
<!-- 23&#45;&gt;22 -->
<g id="edge45" class="edge">
<title>23&#45;&gt;22</title>
<path fill="none" stroke="grey" stroke-width="2" d="M931.54,-287.88C920.94,-267.81 910.78,-239.28 921.5,-216 927.26,-203.5 937.59,-192.85 948.18,-184.44"/>
<polygon fill="grey" stroke="grey" stroke-width="2" points="950.31,-187.23 956.26,-178.46 946.14,-181.6 950.31,-187.23"/>
</g>
<!-- 24 -->
<g id="node25" class="node">
<title>24</title>
<path fill="none" stroke="#5682d8" stroke-width="2" stroke-dasharray="5,2" d="M1025,-252C1025,-252 942,-252 942,-252 936,-252 930,-246 930,-240 930,-240 930,-228 930,-228 930,-222 936,-216 942,-216 942,-216 1025,-216 1025,-216 1031,-216 1037,-222 1037,-228 1037,-228 1037,-240 1037,-240 1037,-246 1031,-252 1025,-252"/>
<text text-anchor="middle" x="983.5" y="-231.5" font-family="sans" font-size="10.00">index_allignement</text>
</g>
<!-- 23&#45;&gt;24 -->
<g id="edge48" class="edge">
<title>23&#45;&gt;24</title>
<path fill="none" stroke="grey" stroke-width="2" d="M959.09,-287.89C962.97,-279.48 967.31,-270.07 971.24,-261.55"/>
<polygon fill="grey" stroke="grey" stroke-width="2" points="974.45,-262.96 975.46,-252.41 968.1,-260.02 974.45,-262.96"/>
</g>
<!-- 24&#45;&gt;22 -->
<g id="edge46" class="edge">
<title>24&#45;&gt;22</title>
<path fill="none" stroke="grey" stroke-width="2" d="M983.5,-215.7C983.5,-207.98 983.5,-198.71 983.5,-190.11"/>
<polygon fill="grey" stroke="grey" stroke-width="2" points="987,-190.1 983.5,-180.1 980,-190.1 987,-190.1"/>
</g>
<!-- 25&#45;&gt;21 -->
<g id="edge40" class="edge">
<title>25&#45;&gt;21</title>
<path fill="none" stroke="grey" stroke-width="2" d="M1144.5,-143.7C1144.5,-135.98 1144.5,-126.71 1144.5,-118.11"/>
<polygon fill="grey" stroke="grey" stroke-width="2" points="1148,-118.1 1144.5,-108.1 1141,-118.1 1148,-118.1"/>
</g>
<!-- 26&#45;&gt;25 -->
<g id="edge51" class="edge">
<title>26&#45;&gt;25</title>
<path fill="none" stroke="grey" stroke-width="2" d="M1140.15,-287.89C1133.53,-277.35 1126.86,-264.62 1123.5,-252 1117.91,-231.03 1124.28,-207.08 1131.43,-189.31"/>
<polygon fill="grey" stroke="grey" stroke-width="2" points="1134.64,-190.7 1135.41,-180.13 1128.22,-187.92 1134.64,-190.7"/>
</g>
<!-- 27 -->
<g id="node28" class="node">
<title>27</title>
<path fill="none" stroke="#5682d8" stroke-width="2" stroke-dasharray="5,2" d="M1227,-252C1227,-252 1144,-252 1144,-252 1138,-252 1132,-246 1132,-240 1132,-240 1132,-228 1132,-228 1132,-222 1138,-216 1144,-216 1144,-216 1227,-216 1227,-216 1233,-216 1239,-222 1239,-228 1239,-228 1239,-240 1239,-240 1239,-246 1233,-252 1227,-252"/>
<text text-anchor="middle" x="1185.5" y="-231.5" font-family="sans" font-size="10.00">index_allignement</text>
</g>
<!-- 26&#45;&gt;27 -->
<g id="edge54" class="edge">
<title>26&#45;&gt;27</title>
<path fill="none" stroke="grey" stroke-width="2" d="M1167.19,-287.89C1170.04,-279.66 1173.22,-270.48 1176.12,-262.1"/>
<polygon fill="grey" stroke="grey" stroke-width="2" points="1179.51,-263.01 1179.47,-252.41 1172.89,-260.72 1179.51,-263.01"/>
</g>
<!-- 27&#45;&gt;25 -->
<g id="edge52" class="edge">
<title>27&#45;&gt;25</title>
<path fill="none" stroke="grey" stroke-width="2" d="M1175.37,-215.7C1170.65,-207.64 1164.94,-197.89 1159.72,-188.98"/>
<polygon fill="grey" stroke="grey" stroke-width="2" points="1162.59,-186.96 1154.52,-180.1 1156.55,-190.5 1162.59,-186.96"/>
</g>
<!-- 28&#45;&gt;21 -->
<g id="edge41" class="edge">
<title>28&#45;&gt;21</title>
<path fill="none" stroke="grey" stroke-width="2" d="M1278.19,-149.13C1254.89,-139 1220.84,-124.19 1192.94,-112.06"/>
<polygon fill="grey" stroke="grey" stroke-width="2" points="1194.3,-108.84 1183.74,-108.06 1191.51,-115.26 1194.3,-108.84"/>
</g>
<!-- 29&#45;&gt;28 -->
<g id="edge57" class="edge">
<title>29&#45;&gt;28</title>
<path fill="none" stroke="grey" stroke-width="2" d="M1343.73,-287.73C1337.26,-277.07 1330.28,-264.29 1325.5,-252 1317.71,-231.98 1312.56,-208.2 1309.44,-190.25"/>
<polygon fill="grey" stroke="grey" stroke-width="2" points="1312.86,-189.48 1307.8,-180.18 1305.96,-190.61 1312.86,-189.48"/>
</g>
<!-- 30 -->
<g id="node31" class="node">
<title>30</title>
<path fill="none" stroke="#5682d8" stroke-width="2" stroke-dasharray="5,2" d="M1429,-252C1429,-252 1346,-252 1346,-252 1340,-252 1334,-246 1334,-240 1334,-240 1334,-228 1334,-228 1334,-222 1340,-216 1346,-216 1346,-216 1429,-216 1429,-216 1435,-216 1441,-222 1441,-228 1441,-228 1441,-240 1441,-240 1441,-246 1435,-252 1429,-252"/>
<text text-anchor="middle" x="1387.5" y="-231.5" font-family="sans" font-size="10.00">index_allignement</text>
</g>
<!-- 29&#45;&gt;30 -->
<g id="edge60" class="edge">
<title>29&#45;&gt;30</title>
<path fill="none" stroke="grey" stroke-width="2" d="M1369.19,-287.89C1372.04,-279.66 1375.22,-270.48 1378.12,-262.1"/>
<polygon fill="grey" stroke="grey" stroke-width="2" points="1381.51,-263.01 1381.47,-252.41 1374.89,-260.72 1381.51,-263.01"/>
</g>
<!-- 30&#45;&gt;28 -->
<g id="edge58" class="edge">
<title>30&#45;&gt;28</title>
<path fill="none" stroke="grey" stroke-width="2" d="M1367.23,-215.7C1357,-206.97 1344.44,-196.24 1333.32,-186.75"/>
<polygon fill="grey" stroke="grey" stroke-width="2" points="1335.41,-183.94 1325.54,-180.1 1330.87,-189.26 1335.41,-183.94"/>
</g>
<!-- 31&#45;&gt;21 -->
<g id="edge42" class="edge">
<title>31&#45;&gt;21</title>
<path fill="none" stroke="grey" stroke-width="2" d="M1480.22,-155.74C1421.47,-144.41 1281.94,-117.5 1202.48,-102.18"/>
<polygon fill="grey" stroke="grey" stroke-width="2" points="1203.11,-98.74 1192.63,-100.28 1201.79,-105.61 1203.11,-98.74"/>
</g>
<!-- 32&#45;&gt;31 -->
<g id="edge63" class="edge">
<title>32&#45;&gt;31</title>
<path fill="none" stroke="grey" stroke-width="2" d="M1545.73,-287.73C1539.26,-277.07 1532.28,-264.29 1527.5,-252 1519.71,-231.98 1514.56,-208.2 1511.44,-190.25"/>
<polygon fill="grey" stroke="grey" stroke-width="2" points="1514.86,-189.48 1509.8,-180.18 1507.96,-190.61 1514.86,-189.48"/>
</g>
<!-- 33 -->
<g id="node34" class="node">
<title>33</title>
<path fill="none" stroke="#5682d8" stroke-width="2" stroke-dasharray="5,2" d="M1631,-252C1631,-252 1548,-252 1548,-252 1542,-252 1536,-246 1536,-240 1536,-240 1536,-228 1536,-228 1536,-222 1542,-216 1548,-216 1548,-216 1631,-216 1631,-216 1637,-216 1643,-222 1643,-228 1643,-228 1643,-240 1643,-240 1643,-246 1637,-252 1631,-252"/>
<text text-anchor="middle" x="1589.5" y="-231.5" font-family="sans" font-size="10.00">index_allignement</text>
</g>
<!-- 32&#45;&gt;33 -->
<g id="edge66" class="edge">
<title>32&#45;&gt;33</title>
<path fill="none" stroke="grey" stroke-width="2" d="M1571.19,-287.89C1574.04,-279.66 1577.22,-270.48 1580.12,-262.1"/>
<polygon fill="grey" stroke="grey" stroke-width="2" points="1583.51,-263.01 1583.47,-252.41 1576.89,-260.72 1583.51,-263.01"/>
</g>
<!-- 33&#45;&gt;31 -->
<g id="edge64" class="edge">
<title>33&#45;&gt;31</title>
<path fill="none" stroke="grey" stroke-width="2" d="M1569.23,-215.7C1559,-206.97 1546.44,-196.24 1535.32,-186.75"/>
<polygon fill="grey" stroke="grey" stroke-width="2" points="1537.41,-183.94 1527.54,-180.1 1532.87,-189.26 1537.41,-183.94"/>
</g>
</g>
</svg>
