<?xml version="1.0" encoding="UTF-8" standalone="no"?>
<!DOCTYPE svg PUBLIC "-//W3C//DTD SVG 1.1//EN"
 "http://www.w3.org/Graphics/SVG/1.1/DTD/svg11.dtd">
<!-- Generated by graphviz version 2.42.3 (20191010.1750)
 -->
<!-- Title: snakemake_dag Pages: 1 -->
<svg width="1508pt" height="652pt"
 viewBox="0.00 0.00 1508.46 652.00" xmlns="http://www.w3.org/2000/svg" xmlns:xlink="http://www.w3.org/1999/xlink">
<g id="graph0" class="graph" transform="scale(1 1) rotate(0) translate(4 648)">
<title>snakemake_dag</title>
<polygon fill="white" stroke="transparent" points="-4,4 -4,-648 1504.46,-648 1504.46,4 -4,4"/>
<!-- 0 -->
<g id="node1" class="node">
<title>0</title>
<path fill="none" stroke="#afd856" stroke-width="2" d="M796,-36C796,-36 766,-36 766,-36 760,-36 754,-30 754,-24 754,-24 754,-12 754,-12 754,-6 760,0 766,0 766,0 796,0 796,0 802,0 808,-6 808,-12 808,-12 808,-24 808,-24 808,-30 802,-36 796,-36"/>
<text text-anchor="middle" x="781" y="-15.5" font-family="sans" font-size="10.00">all</text>
</g>
<!-- 1 -->
<g id="node2" class="node">
<title>1</title>
<path fill="none" stroke="#56d8a9" stroke-width="2" d="M566,-108C566,-108 494,-108 494,-108 488,-108 482,-102 482,-96 482,-96 482,-84 482,-84 482,-78 488,-72 494,-72 494,-72 566,-72 566,-72 572,-72 578,-78 578,-84 578,-84 578,-96 578,-96 578,-102 572,-108 566,-108"/>
<text text-anchor="middle" x="530" y="-87.5" font-family="sans" font-size="10.00">merge_bam_tn5</text>
</g>
<!-- 1&#45;&gt;0 -->
<g id="edge1" class="edge">
<title>1&#45;&gt;0</title>
<path fill="none" stroke="grey" stroke-width="2" d="M578.1,-75.59C626.56,-62.07 700.3,-41.51 744.26,-29.25"/>
<polygon fill="grey" stroke="grey" stroke-width="2" points="745.27,-32.6 753.97,-26.54 743.39,-25.85 745.27,-32.6"/>
</g>
<!-- 2 -->
<g id="node3" class="node">
<title>2</title>
<path fill="none" stroke="#80d856" stroke-width="2" d="M230,-180C230,-180 200,-180 200,-180 194,-180 188,-174 188,-168 188,-168 188,-156 188,-156 188,-150 194,-144 200,-144 200,-144 230,-144 230,-144 236,-144 242,-150 242,-156 242,-156 242,-168 242,-168 242,-174 236,-180 230,-180"/>
<text text-anchor="middle" x="215" y="-159.5" font-family="sans" font-size="10.00">dedup</text>
</g>
<!-- 2&#45;&gt;1 -->
<g id="edge3" class="edge">
<title>2&#45;&gt;1</title>
<path fill="none" stroke="grey" stroke-width="2" d="M242.13,-154.97C292.98,-143.67 403.65,-119.08 471.99,-103.89"/>
<polygon fill="grey" stroke="grey" stroke-width="2" points="472.75,-107.31 481.76,-101.72 471.23,-100.47 472.75,-107.31"/>
</g>
<!-- 3 -->
<g id="node4" class="node">
<title>3</title>
<path fill="none" stroke="#d8ac56" stroke-width="2" d="M649.5,-252C649.5,-252 608.5,-252 608.5,-252 602.5,-252 596.5,-246 596.5,-240 596.5,-240 596.5,-228 596.5,-228 596.5,-222 602.5,-216 608.5,-216 608.5,-216 649.5,-216 649.5,-216 655.5,-216 661.5,-222 661.5,-228 661.5,-228 661.5,-240 661.5,-240 661.5,-246 655.5,-252 649.5,-252"/>
<text text-anchor="middle" x="629" y="-231.5" font-family="sans" font-size="10.00">umi_tools</text>
</g>
<!-- 3&#45;&gt;2 -->
<g id="edge7" class="edge">
<title>3&#45;&gt;2</title>
<path fill="none" stroke="grey" stroke-width="2" d="M596.17,-227.45C520.12,-214.59 332.28,-182.83 252.17,-169.28"/>
<polygon fill="grey" stroke="grey" stroke-width="2" points="252.49,-165.79 242.05,-167.57 251.33,-172.69 252.49,-165.79"/>
</g>
<!-- 12 -->
<g id="node13" class="node">
<title>12</title>
<path fill="none" stroke="#80d856" stroke-width="2" d="M416,-180C416,-180 386,-180 386,-180 380,-180 374,-174 374,-168 374,-168 374,-156 374,-156 374,-150 380,-144 386,-144 386,-144 416,-144 416,-144 422,-144 428,-150 428,-156 428,-156 428,-168 428,-168 428,-174 422,-180 416,-180"/>
<text text-anchor="middle" x="401" y="-159.5" font-family="sans" font-size="10.00">dedup</text>
</g>
<!-- 3&#45;&gt;12 -->
<g id="edge20" class="edge">
<title>3&#45;&gt;12</title>
<path fill="none" stroke="grey" stroke-width="2" d="M596.33,-222.97C554.41,-210.1 481.86,-187.83 437.96,-174.35"/>
<polygon fill="grey" stroke="grey" stroke-width="2" points="438.84,-170.96 428.25,-171.37 436.79,-177.65 438.84,-170.96"/>
</g>
<!-- 15 -->
<g id="node16" class="node">
<title>15</title>
<path fill="none" stroke="#80d856" stroke-width="2" d="M545,-180C545,-180 515,-180 515,-180 509,-180 503,-174 503,-168 503,-168 503,-156 503,-156 503,-150 509,-144 515,-144 515,-144 545,-144 545,-144 551,-144 557,-150 557,-156 557,-156 557,-168 557,-168 557,-174 551,-180 545,-180"/>
<text text-anchor="middle" x="530" y="-159.5" font-family="sans" font-size="10.00">dedup</text>
</g>
<!-- 3&#45;&gt;15 -->
<g id="edge25" class="edge">
<title>3&#45;&gt;15</title>
<path fill="none" stroke="grey" stroke-width="2" d="M604.78,-215.88C592.08,-206.89 576.34,-195.76 562.58,-186.03"/>
<polygon fill="grey" stroke="grey" stroke-width="2" points="564.5,-183.11 554.31,-180.19 560.46,-188.82 564.5,-183.11"/>
</g>
<!-- 18 -->
<g id="node19" class="node">
<title>18</title>
<path fill="none" stroke="#80d856" stroke-width="2" d="M631,-180C631,-180 601,-180 601,-180 595,-180 589,-174 589,-168 589,-168 589,-156 589,-156 589,-150 595,-144 601,-144 601,-144 631,-144 631,-144 637,-144 643,-150 643,-156 643,-156 643,-168 643,-168 643,-174 637,-180 631,-180"/>
<text text-anchor="middle" x="616" y="-159.5" font-family="sans" font-size="10.00">dedup</text>
</g>
<!-- 3&#45;&gt;18 -->
<g id="edge30" class="edge">
<title>3&#45;&gt;18</title>
<path fill="none" stroke="grey" stroke-width="2" d="M625.79,-215.7C624.35,-207.98 622.63,-198.71 621.04,-190.11"/>
<polygon fill="grey" stroke="grey" stroke-width="2" points="624.44,-189.3 619.18,-180.1 617.56,-190.58 624.44,-189.3"/>
</g>
<!-- 22 -->
<g id="node23" class="node">
<title>22</title>
<path fill="none" stroke="#80d856" stroke-width="2" d="M914,-180C914,-180 884,-180 884,-180 878,-180 872,-174 872,-168 872,-168 872,-156 872,-156 872,-150 878,-144 884,-144 884,-144 914,-144 914,-144 920,-144 926,-150 926,-156 926,-156 926,-168 926,-168 926,-174 920,-180 914,-180"/>
<text text-anchor="middle" x="899" y="-159.5" font-family="sans" font-size="10.00">dedup</text>
</g>
<!-- 3&#45;&gt;22 -->
<g id="edge39" class="edge">
<title>3&#45;&gt;22</title>
<path fill="none" stroke="grey" stroke-width="2" d="M661.94,-218.79C664.65,-217.79 667.36,-216.85 670,-216 736.33,-194.73 816.03,-178.26 861.77,-169.65"/>
<polygon fill="grey" stroke="grey" stroke-width="2" points="862.62,-173.05 871.81,-167.78 861.34,-166.17 862.62,-173.05"/>
</g>
<!-- 25 -->
<g id="node26" class="node">
<title>25</title>
<path fill="none" stroke="#80d856" stroke-width="2" d="M1048,-180C1048,-180 1018,-180 1018,-180 1012,-180 1006,-174 1006,-168 1006,-168 1006,-156 1006,-156 1006,-150 1012,-144 1018,-144 1018,-144 1048,-144 1048,-144 1054,-144 1060,-150 1060,-156 1060,-156 1060,-168 1060,-168 1060,-174 1054,-180 1048,-180"/>
<text text-anchor="middle" x="1033" y="-159.5" font-family="sans" font-size="10.00">dedup</text>
</g>
<!-- 3&#45;&gt;25 -->
<g id="edge44" class="edge">
<title>3&#45;&gt;25</title>
<path fill="none" stroke="grey" stroke-width="2" d="M661.86,-218.52C664.59,-217.58 667.32,-216.72 670,-216 784.74,-184.98 817.54,-198.16 935,-180 955.06,-176.9 977.37,-173.06 995.63,-169.81"/>
<polygon fill="grey" stroke="grey" stroke-width="2" points="996.36,-173.24 1005.59,-168.03 995.13,-166.35 996.36,-173.24"/>
</g>
<!-- 28 -->
<g id="node29" class="node">
<title>28</title>
<path fill="none" stroke="#80d856" stroke-width="2" d="M1174,-180C1174,-180 1144,-180 1144,-180 1138,-180 1132,-174 1132,-168 1132,-168 1132,-156 1132,-156 1132,-150 1138,-144 1144,-144 1144,-144 1174,-144 1174,-144 1180,-144 1186,-150 1186,-156 1186,-156 1186,-168 1186,-168 1186,-174 1180,-180 1174,-180"/>
<text text-anchor="middle" x="1159" y="-159.5" font-family="sans" font-size="10.00">dedup</text>
</g>
<!-- 3&#45;&gt;28 -->
<g id="edge49" class="edge">
<title>3&#45;&gt;28</title>
<path fill="none" stroke="grey" stroke-width="2" d="M661.83,-218.38C664.56,-217.48 667.31,-216.66 670,-216 842.89,-173.41 892.65,-204.55 1069,-180 1086.44,-177.57 1105.63,-174.06 1121.8,-170.86"/>
<polygon fill="grey" stroke="grey" stroke-width="2" points="1122.83,-174.23 1131.94,-168.82 1121.44,-167.36 1122.83,-174.23"/>
</g>
<!-- 31 -->
<g id="node32" class="node">
<title>31</title>
<path fill="none" stroke="#80d856" stroke-width="2" d="M1330,-180C1330,-180 1300,-180 1300,-180 1294,-180 1288,-174 1288,-168 1288,-168 1288,-156 1288,-156 1288,-150 1294,-144 1300,-144 1300,-144 1330,-144 1330,-144 1336,-144 1342,-150 1342,-156 1342,-156 1342,-168 1342,-168 1342,-174 1336,-180 1330,-180"/>
<text text-anchor="middle" x="1315" y="-159.5" font-family="sans" font-size="10.00">dedup</text>
</g>
<!-- 3&#45;&gt;31 -->
<g id="edge54" class="edge">
<title>3&#45;&gt;31</title>
<path fill="none" stroke="grey" stroke-width="2" d="M661.81,-218.32C664.55,-217.43 667.3,-216.63 670,-216 897.68,-162.51 962.4,-204.42 1195,-180 1222.89,-177.07 1254.26,-172.59 1277.94,-168.96"/>
<polygon fill="grey" stroke="grey" stroke-width="2" points="1278.56,-172.4 1287.9,-167.41 1277.49,-165.48 1278.56,-172.4"/>
</g>
<!-- 4 -->
<g id="node5" class="node">
<title>4</title>
<path fill="none" stroke="#59d856" stroke-width="2" d="M659,-572C659,-572 553,-572 553,-572 547,-572 541,-566 541,-560 541,-560 541,-532 541,-532 541,-526 547,-520 553,-520 553,-520 659,-520 659,-520 665,-520 671,-526 671,-532 671,-532 671,-560 671,-560 671,-566 665,-572 659,-572"/>
<text text-anchor="middle" x="606" y="-560" font-family="sans" font-size="10.00">merge_reads</text>
<text text-anchor="middle" x="606" y="-549" font-family="sans" font-size="10.00">output: scGET_sample</text>
<text text-anchor="middle" x="606" y="-538" font-family="sans" font-size="10.00">read: 2</text>
<text text-anchor="middle" x="606" y="-527" font-family="sans" font-size="10.00">sample: scGET_sample</text>
</g>
<!-- 4&#45;&gt;3 -->
<g id="edge10" class="edge">
<title>4&#45;&gt;3</title>
<path fill="none" stroke="grey" stroke-width="2" d="M607.85,-519.83C611.23,-473.8 618.65,-372.99 625,-288 625.62,-279.68 626.3,-270.63 626.92,-262.4"/>
<polygon fill="grey" stroke="grey" stroke-width="2" points="630.43,-262.42 627.7,-252.19 623.45,-261.89 630.43,-262.42"/>
</g>
<!-- 7 -->
<g id="node8" class="node">
<title>7</title>
<path fill="none" stroke="#56d8d8" stroke-width="2" d="M771.5,-484C771.5,-484 736.5,-484 736.5,-484 730.5,-484 724.5,-478 724.5,-472 724.5,-472 724.5,-460 724.5,-460 724.5,-454 730.5,-448 736.5,-448 736.5,-448 771.5,-448 771.5,-448 777.5,-448 783.5,-454 783.5,-460 783.5,-460 783.5,-472 783.5,-472 783.5,-478 777.5,-484 771.5,-484"/>
<text text-anchor="middle" x="754" y="-463.5" font-family="sans" font-size="10.00">tag_dust</text>
</g>
<!-- 4&#45;&gt;7 -->
<g id="edge14" class="edge">
<title>4&#45;&gt;7</title>
<path fill="none" stroke="grey" stroke-width="2" d="M653.64,-519.89C673.54,-509.4 696.36,-497.38 715.21,-487.44"/>
<polygon fill="grey" stroke="grey" stroke-width="2" points="716.9,-490.51 724.11,-482.75 713.64,-484.32 716.9,-490.51"/>
</g>
<!-- 5 -->
<g id="node6" class="node">
<title>5</title>
<path fill="none" stroke="#d85656" stroke-width="2" d="M771.5,-644C771.5,-644 736.5,-644 736.5,-644 730.5,-644 724.5,-638 724.5,-632 724.5,-632 724.5,-620 724.5,-620 724.5,-614 730.5,-608 736.5,-608 736.5,-608 771.5,-608 771.5,-608 777.5,-608 783.5,-614 783.5,-620 783.5,-620 783.5,-632 783.5,-632 783.5,-638 777.5,-644 771.5,-644"/>
<text text-anchor="middle" x="754" y="-623.5" font-family="sans" font-size="10.00">file_read</text>
</g>
<!-- 5&#45;&gt;4 -->
<g id="edge11" class="edge">
<title>5&#45;&gt;4</title>
<path fill="none" stroke="grey" stroke-width="2" d="M724.41,-609.4C706.69,-600.07 683.59,-587.89 662.5,-576.78"/>
<polygon fill="grey" stroke="grey" stroke-width="2" points="664.08,-573.66 653.6,-572.09 660.82,-579.85 664.08,-573.66"/>
</g>
<!-- 8 -->
<g id="node9" class="node">
<title>8</title>
<path fill="none" stroke="#59d856" stroke-width="2" d="M955,-572C955,-572 849,-572 849,-572 843,-572 837,-566 837,-560 837,-560 837,-532 837,-532 837,-526 843,-520 849,-520 849,-520 955,-520 955,-520 961,-520 967,-526 967,-532 967,-532 967,-560 967,-560 967,-566 961,-572 955,-572"/>
<text text-anchor="middle" x="902" y="-560" font-family="sans" font-size="10.00">merge_reads</text>
<text text-anchor="middle" x="902" y="-549" font-family="sans" font-size="10.00">output: scGET_sample</text>
<text text-anchor="middle" x="902" y="-538" font-family="sans" font-size="10.00">read: 1</text>
<text text-anchor="middle" x="902" y="-527" font-family="sans" font-size="10.00">sample: scGET_sample</text>
</g>
<!-- 5&#45;&gt;8 -->
<g id="edge16" class="edge">
<title>5&#45;&gt;8</title>
<path fill="none" stroke="grey" stroke-width="2" d="M783.59,-609.4C801.31,-600.07 824.41,-587.89 845.5,-576.78"/>
<polygon fill="grey" stroke="grey" stroke-width="2" points="847.18,-579.85 854.4,-572.09 843.92,-573.66 847.18,-579.85"/>
</g>
<!-- 9 -->
<g id="node10" class="node">
<title>9</title>
<path fill="none" stroke="#59d856" stroke-width="2" d="M807,-572C807,-572 701,-572 701,-572 695,-572 689,-566 689,-560 689,-560 689,-532 689,-532 689,-526 695,-520 701,-520 701,-520 807,-520 807,-520 813,-520 819,-526 819,-532 819,-532 819,-560 819,-560 819,-566 813,-572 807,-572"/>
<text text-anchor="middle" x="754" y="-560" font-family="sans" font-size="10.00">merge_reads</text>
<text text-anchor="middle" x="754" y="-549" font-family="sans" font-size="10.00">output: scGET_sample</text>
<text text-anchor="middle" x="754" y="-538" font-family="sans" font-size="10.00">read: 3</text>
<text text-anchor="middle" x="754" y="-527" font-family="sans" font-size="10.00">sample: scGET_sample</text>
</g>
<!-- 5&#45;&gt;9 -->
<g id="edge17" class="edge">
<title>5&#45;&gt;9</title>
<path fill="none" stroke="grey" stroke-width="2" d="M754,-607.69C754,-600.21 754,-591.16 754,-582.36"/>
<polygon fill="grey" stroke="grey" stroke-width="2" points="757.5,-582.26 754,-572.26 750.5,-582.26 757.5,-582.26"/>
</g>
<!-- 6 -->
<g id="node7" class="node">
<title>6</title>
<path fill="none" stroke="#d6d856" stroke-width="2" d="M774,-412C774,-412 734,-412 734,-412 728,-412 722,-406 722,-400 722,-400 722,-388 722,-388 722,-382 728,-376 734,-376 734,-376 774,-376 774,-376 780,-376 786,-382 786,-388 786,-388 786,-400 786,-400 786,-406 780,-412 774,-412"/>
<text text-anchor="middle" x="754" y="-391.5" font-family="sans" font-size="10.00">compress</text>
</g>
<!-- 6&#45;&gt;2 -->
<g id="edge8" class="edge">
<title>6&#45;&gt;2</title>
<path fill="none" stroke="grey" stroke-width="2" d="M721.68,-392.51C605.49,-390.43 213.91,-380.45 177,-340 138.56,-297.87 173.71,-226.54 197.43,-188.57"/>
<polygon fill="grey" stroke="grey" stroke-width="2" points="200.41,-190.41 202.87,-180.11 194.52,-186.63 200.41,-190.41"/>
</g>
<!-- 11 -->
<g id="node12" class="node">
<title>11</title>
<path fill="none" stroke="#d88556" stroke-width="2" d="M118,-340C118,-340 12,-340 12,-340 6,-340 0,-334 0,-328 0,-328 0,-300 0,-300 0,-294 6,-288 12,-288 12,-288 118,-288 118,-288 124,-288 130,-294 130,-300 130,-300 130,-328 130,-328 130,-334 124,-340 118,-340"/>
<text text-anchor="middle" x="65" y="-328" font-family="sans" font-size="10.00">bwa</text>
<text text-anchor="middle" x="65" y="-317" font-family="sans" font-size="10.00">barcode: CGTACTAG</text>
<text text-anchor="middle" x="65" y="-306" font-family="sans" font-size="10.00">output: scGET_sample</text>
<text text-anchor="middle" x="65" y="-295" font-family="sans" font-size="10.00">sample: scGET_sample</text>
</g>
<!-- 6&#45;&gt;11 -->
<g id="edge19" class="edge">
<title>6&#45;&gt;11</title>
<path fill="none" stroke="grey" stroke-width="2" d="M721.9,-392.68C630.58,-391.26 361.89,-383.39 144,-340 142.73,-339.75 141.45,-339.48 140.17,-339.2"/>
<polygon fill="grey" stroke="grey" stroke-width="2" points="140.77,-335.75 130.24,-336.86 139.17,-342.56 140.77,-335.75"/>
</g>
<!-- 6&#45;&gt;12 -->
<g id="edge21" class="edge">
<title>6&#45;&gt;12</title>
<path fill="none" stroke="grey" stroke-width="2" d="M721.68,-391.02C632.26,-385.22 386.55,-366.96 363,-340 325.73,-297.34 359.77,-227.02 383.19,-189.13"/>
<polygon fill="grey" stroke="grey" stroke-width="2" points="386.44,-190.54 388.86,-180.23 380.53,-186.78 386.44,-190.54"/>
</g>
<!-- 14 -->
<g id="node15" class="node">
<title>14</title>
<path fill="none" stroke="#d88556" stroke-width="2" d="M304,-340C304,-340 198,-340 198,-340 192,-340 186,-334 186,-328 186,-328 186,-300 186,-300 186,-294 192,-288 198,-288 198,-288 304,-288 304,-288 310,-288 316,-294 316,-300 316,-300 316,-328 316,-328 316,-334 310,-340 304,-340"/>
<text text-anchor="middle" x="251" y="-328" font-family="sans" font-size="10.00">bwa</text>
<text text-anchor="middle" x="251" y="-317" font-family="sans" font-size="10.00">barcode: TCCTGAGC</text>
<text text-anchor="middle" x="251" y="-306" font-family="sans" font-size="10.00">output: scGET_sample</text>
<text text-anchor="middle" x="251" y="-295" font-family="sans" font-size="10.00">sample: scGET_sample</text>
</g>
<!-- 6&#45;&gt;14 -->
<g id="edge24" class="edge">
<title>6&#45;&gt;14</title>
<path fill="none" stroke="grey" stroke-width="2" d="M721.75,-390.98C650.43,-386.08 474.21,-371.56 330,-340 328.74,-339.72 327.46,-339.44 326.18,-339.14"/>
<polygon fill="grey" stroke="grey" stroke-width="2" points="326.83,-335.69 316.28,-336.67 325.13,-342.48 326.83,-335.69"/>
</g>
<!-- 6&#45;&gt;15 -->
<g id="edge26" class="edge">
<title>6&#45;&gt;15</title>
<path fill="none" stroke="grey" stroke-width="2" d="M722,-391.81C683.76,-388.66 620.29,-377.65 583,-340 542.73,-299.34 532.85,-229.4 530.56,-190.73"/>
<polygon fill="grey" stroke="grey" stroke-width="2" points="534.03,-190.08 530.08,-180.25 527.04,-190.4 534.03,-190.08"/>
</g>
<!-- 17 -->
<g id="node18" class="node">
<title>17</title>
<path fill="none" stroke="#d88556" stroke-width="2" d="M490,-340C490,-340 384,-340 384,-340 378,-340 372,-334 372,-328 372,-328 372,-300 372,-300 372,-294 378,-288 384,-288 384,-288 490,-288 490,-288 496,-288 502,-294 502,-300 502,-300 502,-328 502,-328 502,-334 496,-340 490,-340"/>
<text text-anchor="middle" x="437" y="-328" font-family="sans" font-size="10.00">bwa</text>
<text text-anchor="middle" x="437" y="-317" font-family="sans" font-size="10.00">barcode: TCATGAGC</text>
<text text-anchor="middle" x="437" y="-306" font-family="sans" font-size="10.00">output: scGET_sample</text>
<text text-anchor="middle" x="437" y="-295" font-family="sans" font-size="10.00">sample: scGET_sample</text>
</g>
<!-- 6&#45;&gt;17 -->
<g id="edge29" class="edge">
<title>6&#45;&gt;17</title>
<path fill="none" stroke="grey" stroke-width="2" d="M721.83,-386.77C675.89,-377.65 588.97,-359.63 516,-340 514.75,-339.66 513.49,-339.32 512.22,-338.97"/>
<polygon fill="grey" stroke="grey" stroke-width="2" points="512.97,-335.54 502.4,-336.18 511.06,-342.28 512.97,-335.54"/>
</g>
<!-- 6&#45;&gt;18 -->
<g id="edge31" class="edge">
<title>6&#45;&gt;18</title>
<path fill="none" stroke="grey" stroke-width="2" d="M721.83,-386.97C693.15,-380.09 651.69,-366.22 625,-340 583.88,-299.61 572.72,-271.84 587,-216 589.38,-206.7 593.76,-197.27 598.42,-189"/>
<polygon fill="grey" stroke="grey" stroke-width="2" points="601.54,-190.59 603.69,-180.22 595.54,-186.99 601.54,-190.59"/>
</g>
<!-- 20 -->
<g id="node21" class="node">
<title>20</title>
<path fill="none" stroke="#d88556" stroke-width="2" d="M752,-340C752,-340 646,-340 646,-340 640,-340 634,-334 634,-328 634,-328 634,-300 634,-300 634,-294 640,-288 646,-288 646,-288 752,-288 752,-288 758,-288 764,-294 764,-300 764,-300 764,-328 764,-328 764,-334 758,-340 752,-340"/>
<text text-anchor="middle" x="699" y="-328" font-family="sans" font-size="10.00">bwa</text>
<text text-anchor="middle" x="699" y="-317" font-family="sans" font-size="10.00">barcode: CCTGAGAT</text>
<text text-anchor="middle" x="699" y="-306" font-family="sans" font-size="10.00">output: scGET_sample</text>
<text text-anchor="middle" x="699" y="-295" font-family="sans" font-size="10.00">sample: scGET_sample</text>
</g>
<!-- 6&#45;&gt;20 -->
<g id="edge34" class="edge">
<title>6&#45;&gt;20</title>
<path fill="none" stroke="grey" stroke-width="2" d="M741.79,-375.69C736.17,-367.72 729.3,-357.97 722.72,-348.64"/>
<polygon fill="grey" stroke="grey" stroke-width="2" points="725.43,-346.41 716.81,-340.26 719.71,-350.45 725.43,-346.41"/>
</g>
<!-- 6&#45;&gt;22 -->
<g id="edge40" class="edge">
<title>6&#45;&gt;22</title>
<path fill="none" stroke="grey" stroke-width="2" d="M786.16,-393.26C825.34,-391.63 890.1,-382.22 921,-340 953.73,-295.27 929.93,-226.55 912.66,-189.26"/>
<polygon fill="grey" stroke="grey" stroke-width="2" points="915.72,-187.55 908.23,-180.06 909.41,-190.59 915.72,-187.55"/>
</g>
<!-- 24 -->
<g id="node25" class="node">
<title>24</title>
<path fill="none" stroke="#d88556" stroke-width="2" d="M900,-340C900,-340 794,-340 794,-340 788,-340 782,-334 782,-328 782,-328 782,-300 782,-300 782,-294 788,-288 794,-288 794,-288 900,-288 900,-288 906,-288 912,-294 912,-300 912,-300 912,-328 912,-328 912,-334 906,-340 900,-340"/>
<text text-anchor="middle" x="847" y="-328" font-family="sans" font-size="10.00">bwa</text>
<text text-anchor="middle" x="847" y="-317" font-family="sans" font-size="10.00">barcode: TAAGGCGA</text>
<text text-anchor="middle" x="847" y="-306" font-family="sans" font-size="10.00">output: scGET_sample</text>
<text text-anchor="middle" x="847" y="-295" font-family="sans" font-size="10.00">sample: scGET_sample</text>
</g>
<!-- 6&#45;&gt;24 -->
<g id="edge43" class="edge">
<title>6&#45;&gt;24</title>
<path fill="none" stroke="grey" stroke-width="2" d="M774.64,-375.69C784.73,-367.23 797.19,-356.77 808.92,-346.94"/>
<polygon fill="grey" stroke="grey" stroke-width="2" points="811.47,-349.36 816.89,-340.26 806.97,-344 811.47,-349.36"/>
</g>
<!-- 6&#45;&gt;25 -->
<g id="edge45" class="edge">
<title>6&#45;&gt;25</title>
<path fill="none" stroke="grey" stroke-width="2" d="M786.09,-393.26C865.11,-393.14 1065.65,-388.02 1107,-340 1120.58,-324.23 1096.86,-217.53 1096,-216 1089.25,-203.98 1078.65,-193.5 1068.06,-185.1"/>
<polygon fill="grey" stroke="grey" stroke-width="2" points="1070.12,-182.27 1060.02,-179.09 1065.93,-187.88 1070.12,-182.27"/>
</g>
<!-- 27 -->
<g id="node28" class="node">
<title>27</title>
<path fill="none" stroke="#d88556" stroke-width="2" d="M1086,-340C1086,-340 980,-340 980,-340 974,-340 968,-334 968,-328 968,-328 968,-300 968,-300 968,-294 974,-288 980,-288 980,-288 1086,-288 1086,-288 1092,-288 1098,-294 1098,-300 1098,-300 1098,-328 1098,-328 1098,-334 1092,-340 1086,-340"/>
<text text-anchor="middle" x="1033" y="-328" font-family="sans" font-size="10.00">bwa</text>
<text text-anchor="middle" x="1033" y="-317" font-family="sans" font-size="10.00">barcode: GCTACGCT</text>
<text text-anchor="middle" x="1033" y="-306" font-family="sans" font-size="10.00">output: scGET_sample</text>
<text text-anchor="middle" x="1033" y="-295" font-family="sans" font-size="10.00">sample: scGET_sample</text>
</g>
<!-- 6&#45;&gt;27 -->
<g id="edge48" class="edge">
<title>6&#45;&gt;27</title>
<path fill="none" stroke="grey" stroke-width="2" d="M786.34,-384.93C826,-374.92 895.19,-357.09 954,-340 955.42,-339.59 956.86,-339.16 958.31,-338.74"/>
<polygon fill="grey" stroke="grey" stroke-width="2" points="959.4,-342.07 967.98,-335.85 957.39,-335.36 959.4,-342.07"/>
</g>
<!-- 6&#45;&gt;28 -->
<g id="edge50" class="edge">
<title>6&#45;&gt;28</title>
<path fill="none" stroke="grey" stroke-width="2" d="M786.1,-392.3C896.95,-389.54 1258.82,-377.71 1293,-340 1330.32,-298.83 1312.1,-259.08 1277,-216 1256.69,-191.07 1222.17,-177.44 1195.71,-170.28"/>
<polygon fill="grey" stroke="grey" stroke-width="2" points="1196.55,-166.88 1186,-167.84 1194.85,-173.67 1196.55,-166.88"/>
</g>
<!-- 30 -->
<g id="node31" class="node">
<title>30</title>
<path fill="none" stroke="#d88556" stroke-width="2" d="M1272,-340C1272,-340 1166,-340 1166,-340 1160,-340 1154,-334 1154,-328 1154,-328 1154,-300 1154,-300 1154,-294 1160,-288 1166,-288 1166,-288 1272,-288 1272,-288 1278,-288 1284,-294 1284,-300 1284,-300 1284,-328 1284,-328 1284,-334 1278,-340 1272,-340"/>
<text text-anchor="middle" x="1219" y="-328" font-family="sans" font-size="10.00">bwa</text>
<text text-anchor="middle" x="1219" y="-317" font-family="sans" font-size="10.00">barcode: AGGCTCCG</text>
<text text-anchor="middle" x="1219" y="-306" font-family="sans" font-size="10.00">output: scGET_sample</text>
<text text-anchor="middle" x="1219" y="-295" font-family="sans" font-size="10.00">sample: scGET_sample</text>
</g>
<!-- 6&#45;&gt;30 -->
<g id="edge53" class="edge">
<title>6&#45;&gt;30</title>
<path fill="none" stroke="grey" stroke-width="2" d="M786.1,-390.45C852.7,-384.76 1010.49,-369.16 1140,-340 1141.26,-339.72 1142.54,-339.42 1143.81,-339.12"/>
<polygon fill="grey" stroke="grey" stroke-width="2" points="1144.88,-342.46 1153.71,-336.6 1143.16,-335.67 1144.88,-342.46"/>
</g>
<!-- 6&#45;&gt;31 -->
<g id="edge55" class="edge">
<title>6&#45;&gt;31</title>
<path fill="none" stroke="grey" stroke-width="2" d="M786.44,-393.16C921.12,-393.48 1431.31,-391.3 1479,-340 1516.83,-299.3 1499.76,-257.67 1463,-216 1434.78,-184 1385.83,-171.32 1352,-166.3"/>
<polygon fill="grey" stroke="grey" stroke-width="2" points="1352.4,-162.82 1342.03,-164.97 1351.48,-169.76 1352.4,-162.82"/>
</g>
<!-- 33 -->
<g id="node34" class="node">
<title>33</title>
<path fill="none" stroke="#d88556" stroke-width="2" d="M1458,-340C1458,-340 1352,-340 1352,-340 1346,-340 1340,-334 1340,-328 1340,-328 1340,-300 1340,-300 1340,-294 1346,-288 1352,-288 1352,-288 1458,-288 1458,-288 1464,-288 1470,-294 1470,-300 1470,-300 1470,-328 1470,-328 1470,-334 1464,-340 1458,-340"/>
<text text-anchor="middle" x="1405" y="-328" font-family="sans" font-size="10.00">bwa</text>
<text text-anchor="middle" x="1405" y="-317" font-family="sans" font-size="10.00">barcode: CTGCGCAT</text>
<text text-anchor="middle" x="1405" y="-306" font-family="sans" font-size="10.00">output: scGET_sample</text>
<text text-anchor="middle" x="1405" y="-295" font-family="sans" font-size="10.00">sample: scGET_sample</text>
</g>
<!-- 6&#45;&gt;33 -->
<g id="edge58" class="edge">
<title>6&#45;&gt;33</title>
<path fill="none" stroke="grey" stroke-width="2" d="M786.29,-392.42C873.95,-390.33 1123.4,-380.95 1326,-340 1327.27,-339.74 1328.55,-339.47 1329.83,-339.19"/>
<polygon fill="grey" stroke="grey" stroke-width="2" points="1330.84,-342.55 1339.76,-336.83 1329.22,-335.74 1330.84,-342.55"/>
</g>
<!-- 7&#45;&gt;6 -->
<g id="edge12" class="edge">
<title>7&#45;&gt;6</title>
<path fill="none" stroke="grey" stroke-width="2" d="M754,-447.7C754,-439.98 754,-430.71 754,-422.11"/>
<polygon fill="grey" stroke="grey" stroke-width="2" points="757.5,-422.1 754,-412.1 750.5,-422.1 757.5,-422.1"/>
</g>
<!-- 8&#45;&gt;7 -->
<g id="edge13" class="edge">
<title>8&#45;&gt;7</title>
<path fill="none" stroke="grey" stroke-width="2" d="M854.36,-519.89C834.46,-509.4 811.64,-497.38 792.79,-487.44"/>
<polygon fill="grey" stroke="grey" stroke-width="2" points="794.36,-484.32 783.89,-482.75 791.1,-490.51 794.36,-484.32"/>
</g>
<!-- 9&#45;&gt;7 -->
<g id="edge15" class="edge">
<title>9&#45;&gt;7</title>
<path fill="none" stroke="grey" stroke-width="2" d="M754,-519.89C754,-511.84 754,-502.88 754,-494.66"/>
<polygon fill="grey" stroke="grey" stroke-width="2" points="757.5,-494.41 754,-484.41 750.5,-494.41 757.5,-494.41"/>
</g>
<!-- 10 -->
<g id="node11" class="node">
<title>10</title>
<path fill="none" stroke="#56a9d8" stroke-width="2" d="M112.5,-252C112.5,-252 29.5,-252 29.5,-252 23.5,-252 17.5,-246 17.5,-240 17.5,-240 17.5,-228 17.5,-228 17.5,-222 23.5,-216 29.5,-216 29.5,-216 112.5,-216 112.5,-216 118.5,-216 124.5,-222 124.5,-228 124.5,-228 124.5,-240 124.5,-240 124.5,-246 118.5,-252 112.5,-252"/>
<text text-anchor="middle" x="71" y="-231.5" font-family="sans" font-size="10.00">index_allignement</text>
</g>
<!-- 10&#45;&gt;2 -->
<g id="edge9" class="edge">
<title>10&#45;&gt;2</title>
<path fill="none" stroke="grey" stroke-width="2" d="M106.23,-215.88C128.23,-205.18 156.49,-191.44 178.7,-180.65"/>
<polygon fill="grey" stroke="grey" stroke-width="2" points="180.34,-183.74 187.8,-176.22 177.28,-177.44 180.34,-183.74"/>
</g>
<!-- 11&#45;&gt;10 -->
<g id="edge18" class="edge">
<title>11&#45;&gt;10</title>
<path fill="none" stroke="grey" stroke-width="2" d="M66.93,-287.89C67.55,-279.84 68.24,-270.88 68.87,-262.66"/>
<polygon fill="grey" stroke="grey" stroke-width="2" points="72.38,-262.65 69.66,-252.41 65.4,-262.11 72.38,-262.65"/>
</g>
<!-- 12&#45;&gt;1 -->
<g id="edge4" class="edge">
<title>12&#45;&gt;1</title>
<path fill="none" stroke="grey" stroke-width="2" d="M428.04,-146.33C445.85,-136.66 469.5,-123.83 489.53,-112.96"/>
<polygon fill="grey" stroke="grey" stroke-width="2" points="491.33,-115.97 498.45,-108.12 487.99,-109.82 491.33,-115.97"/>
</g>
<!-- 13 -->
<g id="node14" class="node">
<title>13</title>
<path fill="none" stroke="#56a9d8" stroke-width="2" d="M298.5,-252C298.5,-252 215.5,-252 215.5,-252 209.5,-252 203.5,-246 203.5,-240 203.5,-240 203.5,-228 203.5,-228 203.5,-222 209.5,-216 215.5,-216 215.5,-216 298.5,-216 298.5,-216 304.5,-216 310.5,-222 310.5,-228 310.5,-228 310.5,-240 310.5,-240 310.5,-246 304.5,-252 298.5,-252"/>
<text text-anchor="middle" x="257" y="-231.5" font-family="sans" font-size="10.00">index_allignement</text>
</g>
<!-- 13&#45;&gt;12 -->
<g id="edge22" class="edge">
<title>13&#45;&gt;12</title>
<path fill="none" stroke="grey" stroke-width="2" d="M292.23,-215.88C314.23,-205.18 342.49,-191.44 364.7,-180.65"/>
<polygon fill="grey" stroke="grey" stroke-width="2" points="366.34,-183.74 373.8,-176.22 363.28,-177.44 366.34,-183.74"/>
</g>
<!-- 14&#45;&gt;13 -->
<g id="edge23" class="edge">
<title>14&#45;&gt;13</title>
<path fill="none" stroke="grey" stroke-width="2" d="M252.93,-287.89C253.55,-279.84 254.24,-270.88 254.87,-262.66"/>
<polygon fill="grey" stroke="grey" stroke-width="2" points="258.38,-262.65 255.66,-252.41 251.4,-262.11 258.38,-262.65"/>
</g>
<!-- 15&#45;&gt;1 -->
<g id="edge5" class="edge">
<title>15&#45;&gt;1</title>
<path fill="none" stroke="grey" stroke-width="2" d="M530,-143.7C530,-135.98 530,-126.71 530,-118.11"/>
<polygon fill="grey" stroke="grey" stroke-width="2" points="533.5,-118.1 530,-108.1 526.5,-118.1 533.5,-118.1"/>
</g>
<!-- 16 -->
<g id="node17" class="node">
<title>16</title>
<path fill="none" stroke="#56a9d8" stroke-width="2" d="M483.5,-252C483.5,-252 400.5,-252 400.5,-252 394.5,-252 388.5,-246 388.5,-240 388.5,-240 388.5,-228 388.5,-228 388.5,-222 394.5,-216 400.5,-216 400.5,-216 483.5,-216 483.5,-216 489.5,-216 495.5,-222 495.5,-228 495.5,-228 495.5,-240 495.5,-240 495.5,-246 489.5,-252 483.5,-252"/>
<text text-anchor="middle" x="442" y="-231.5" font-family="sans" font-size="10.00">index_allignement</text>
</g>
<!-- 16&#45;&gt;15 -->
<g id="edge27" class="edge">
<title>16&#45;&gt;15</title>
<path fill="none" stroke="grey" stroke-width="2" d="M463.75,-215.7C474.84,-206.88 488.47,-196.03 500.49,-186.47"/>
<polygon fill="grey" stroke="grey" stroke-width="2" points="502.85,-189.07 508.5,-180.1 498.49,-183.59 502.85,-189.07"/>
</g>
<!-- 17&#45;&gt;16 -->
<g id="edge28" class="edge">
<title>17&#45;&gt;16</title>
<path fill="none" stroke="grey" stroke-width="2" d="M438.61,-287.89C439.13,-279.84 439.7,-270.88 440.23,-262.66"/>
<polygon fill="grey" stroke="grey" stroke-width="2" points="443.74,-262.61 440.88,-252.41 436.75,-262.17 443.74,-262.61"/>
</g>
<!-- 18&#45;&gt;1 -->
<g id="edge6" class="edge">
<title>18&#45;&gt;1</title>
<path fill="none" stroke="grey" stroke-width="2" d="M594.74,-143.7C583.91,-134.88 570.58,-124.03 558.84,-114.47"/>
<polygon fill="grey" stroke="grey" stroke-width="2" points="560.98,-111.7 551.01,-108.1 556.56,-117.13 560.98,-111.7"/>
</g>
<!-- 19 -->
<g id="node20" class="node">
<title>19</title>
<path fill="none" stroke="#56a9d8" stroke-width="2" d="M774.5,-252C774.5,-252 691.5,-252 691.5,-252 685.5,-252 679.5,-246 679.5,-240 679.5,-240 679.5,-228 679.5,-228 679.5,-222 685.5,-216 691.5,-216 691.5,-216 774.5,-216 774.5,-216 780.5,-216 786.5,-222 786.5,-228 786.5,-228 786.5,-240 786.5,-240 786.5,-246 780.5,-252 774.5,-252"/>
<text text-anchor="middle" x="733" y="-231.5" font-family="sans" font-size="10.00">index_allignement</text>
</g>
<!-- 19&#45;&gt;18 -->
<g id="edge32" class="edge">
<title>19&#45;&gt;18</title>
<path fill="none" stroke="grey" stroke-width="2" d="M704.38,-215.88C688.62,-206.45 668.92,-194.66 652.11,-184.61"/>
<polygon fill="grey" stroke="grey" stroke-width="2" points="653.5,-181.36 643.12,-179.23 649.9,-187.36 653.5,-181.36"/>
</g>
<!-- 20&#45;&gt;19 -->
<g id="edge33" class="edge">
<title>20&#45;&gt;19</title>
<path fill="none" stroke="grey" stroke-width="2" d="M709.94,-287.89C713.57,-279.57 717.62,-270.28 721.31,-261.83"/>
<polygon fill="grey" stroke="grey" stroke-width="2" points="724.62,-262.98 725.41,-252.41 718.21,-260.18 724.62,-262.98"/>
</g>
<!-- 21 -->
<g id="node22" class="node">
<title>21</title>
<path fill="none" stroke="#5682d8" stroke-width="2" d="M1069,-108C1069,-108 997,-108 997,-108 991,-108 985,-102 985,-96 985,-96 985,-84 985,-84 985,-78 991,-72 997,-72 997,-72 1069,-72 1069,-72 1075,-72 1081,-78 1081,-84 1081,-84 1081,-96 1081,-96 1081,-102 1075,-108 1069,-108"/>
<text text-anchor="middle" x="1033" y="-87.5" font-family="sans" font-size="10.00">merge_bam_tnh</text>
</g>
<!-- 21&#45;&gt;0 -->
<g id="edge2" class="edge">
<title>21&#45;&gt;0</title>
<path fill="none" stroke="grey" stroke-width="2" d="M984.71,-75.59C936.05,-62.07 862.02,-41.51 817.89,-29.25"/>
<polygon fill="grey" stroke="grey" stroke-width="2" points="818.71,-25.84 808.14,-26.54 816.84,-32.59 818.71,-25.84"/>
</g>
<!-- 22&#45;&gt;21 -->
<g id="edge35" class="edge">
<title>22&#45;&gt;21</title>
<path fill="none" stroke="grey" stroke-width="2" d="M926.12,-146.83C944.77,-137.09 969.91,-123.96 991.12,-112.88"/>
<polygon fill="grey" stroke="grey" stroke-width="2" points="993,-115.85 1000.24,-108.11 989.76,-109.64 993,-115.85"/>
</g>
<!-- 23 -->
<g id="node24" class="node">
<title>23</title>
<path fill="none" stroke="#56a9d8" stroke-width="2" d="M899.5,-252C899.5,-252 816.5,-252 816.5,-252 810.5,-252 804.5,-246 804.5,-240 804.5,-240 804.5,-228 804.5,-228 804.5,-222 810.5,-216 816.5,-216 816.5,-216 899.5,-216 899.5,-216 905.5,-216 911.5,-222 911.5,-228 911.5,-228 911.5,-240 911.5,-240 911.5,-246 905.5,-252 899.5,-252"/>
<text text-anchor="middle" x="858" y="-231.5" font-family="sans" font-size="10.00">index_allignement</text>
</g>
<!-- 23&#45;&gt;22 -->
<g id="edge41" class="edge">
<title>23&#45;&gt;22</title>
<path fill="none" stroke="grey" stroke-width="2" d="M868.13,-215.7C872.85,-207.64 878.56,-197.89 883.78,-188.98"/>
<polygon fill="grey" stroke="grey" stroke-width="2" points="886.95,-190.5 888.98,-180.1 880.91,-186.96 886.95,-190.5"/>
</g>
<!-- 24&#45;&gt;23 -->
<g id="edge42" class="edge">
<title>24&#45;&gt;23</title>
<path fill="none" stroke="grey" stroke-width="2" d="M850.54,-287.89C851.69,-279.75 852.97,-270.68 854.14,-262.38"/>
<polygon fill="grey" stroke="grey" stroke-width="2" points="857.61,-262.8 855.54,-252.41 850.68,-261.82 857.61,-262.8"/>
</g>
<!-- 25&#45;&gt;21 -->
<g id="edge36" class="edge">
<title>25&#45;&gt;21</title>
<path fill="none" stroke="grey" stroke-width="2" d="M1033,-143.7C1033,-135.98 1033,-126.71 1033,-118.11"/>
<polygon fill="grey" stroke="grey" stroke-width="2" points="1036.5,-118.1 1033,-108.1 1029.5,-118.1 1036.5,-118.1"/>
</g>
<!-- 26 -->
<g id="node27" class="node">
<title>26</title>
<path fill="none" stroke="#56a9d8" stroke-width="2" d="M1074.5,-252C1074.5,-252 991.5,-252 991.5,-252 985.5,-252 979.5,-246 979.5,-240 979.5,-240 979.5,-228 979.5,-228 979.5,-222 985.5,-216 991.5,-216 991.5,-216 1074.5,-216 1074.5,-216 1080.5,-216 1086.5,-222 1086.5,-228 1086.5,-228 1086.5,-240 1086.5,-240 1086.5,-246 1080.5,-252 1074.5,-252"/>
<text text-anchor="middle" x="1033" y="-231.5" font-family="sans" font-size="10.00">index_allignement</text>
</g>
<!-- 26&#45;&gt;25 -->
<g id="edge46" class="edge">
<title>26&#45;&gt;25</title>
<path fill="none" stroke="grey" stroke-width="2" d="M1033,-215.7C1033,-207.98 1033,-198.71 1033,-190.11"/>
<polygon fill="grey" stroke="grey" stroke-width="2" points="1036.5,-190.1 1033,-180.1 1029.5,-190.1 1036.5,-190.1"/>
</g>
<!-- 27&#45;&gt;26 -->
<g id="edge47" class="edge">
<title>27&#45;&gt;26</title>
<path fill="none" stroke="grey" stroke-width="2" d="M1033,-287.89C1033,-279.84 1033,-270.88 1033,-262.66"/>
<polygon fill="grey" stroke="grey" stroke-width="2" points="1036.5,-262.41 1033,-252.41 1029.5,-262.41 1036.5,-262.41"/>
</g>
<!-- 28&#45;&gt;21 -->
<g id="edge37" class="edge">
<title>28&#45;&gt;21</title>
<path fill="none" stroke="grey" stroke-width="2" d="M1131.97,-145.98C1114.74,-136.41 1092.11,-123.84 1072.84,-113.14"/>
<polygon fill="grey" stroke="grey" stroke-width="2" points="1074.42,-110.01 1063.98,-108.21 1071.02,-116.13 1074.42,-110.01"/>
</g>
<!-- 29 -->
<g id="node30" class="node">
<title>29</title>
<path fill="none" stroke="#56a9d8" stroke-width="2" d="M1255.5,-252C1255.5,-252 1172.5,-252 1172.5,-252 1166.5,-252 1160.5,-246 1160.5,-240 1160.5,-240 1160.5,-228 1160.5,-228 1160.5,-222 1166.5,-216 1172.5,-216 1172.5,-216 1255.5,-216 1255.5,-216 1261.5,-216 1267.5,-222 1267.5,-228 1267.5,-228 1267.5,-240 1267.5,-240 1267.5,-246 1261.5,-252 1255.5,-252"/>
<text text-anchor="middle" x="1214" y="-231.5" font-family="sans" font-size="10.00">index_allignement</text>
</g>
<!-- 29&#45;&gt;28 -->
<g id="edge51" class="edge">
<title>29&#45;&gt;28</title>
<path fill="none" stroke="grey" stroke-width="2" d="M1200.4,-215.7C1193.88,-207.39 1185.93,-197.28 1178.75,-188.14"/>
<polygon fill="grey" stroke="grey" stroke-width="2" points="1181.37,-185.81 1172.44,-180.1 1175.87,-190.13 1181.37,-185.81"/>
</g>
<!-- 30&#45;&gt;29 -->
<g id="edge52" class="edge">
<title>30&#45;&gt;29</title>
<path fill="none" stroke="grey" stroke-width="2" d="M1217.39,-287.89C1216.87,-279.84 1216.3,-270.88 1215.77,-262.66"/>
<polygon fill="grey" stroke="grey" stroke-width="2" points="1219.25,-262.17 1215.12,-252.41 1212.26,-262.61 1219.25,-262.17"/>
</g>
<!-- 31&#45;&gt;21 -->
<g id="edge38" class="edge">
<title>31&#45;&gt;21</title>
<path fill="none" stroke="grey" stroke-width="2" d="M1287.96,-154.29C1242.84,-143.09 1151.23,-120.35 1091,-105.4"/>
<polygon fill="grey" stroke="grey" stroke-width="2" points="1091.79,-101.99 1081.24,-102.97 1090.1,-108.78 1091.79,-101.99"/>
</g>
<!-- 32 -->
<g id="node33" class="node">
<title>32</title>
<path fill="none" stroke="#56a9d8" stroke-width="2" d="M1441.5,-252C1441.5,-252 1358.5,-252 1358.5,-252 1352.5,-252 1346.5,-246 1346.5,-240 1346.5,-240 1346.5,-228 1346.5,-228 1346.5,-222 1352.5,-216 1358.5,-216 1358.5,-216 1441.5,-216 1441.5,-216 1447.5,-216 1453.5,-222 1453.5,-228 1453.5,-228 1453.5,-240 1453.5,-240 1453.5,-246 1447.5,-252 1441.5,-252"/>
<text text-anchor="middle" x="1400" y="-231.5" font-family="sans" font-size="10.00">index_allignement</text>
</g>
<!-- 32&#45;&gt;31 -->
<g id="edge56" class="edge">
<title>32&#45;&gt;31</title>
<path fill="none" stroke="grey" stroke-width="2" d="M1378.99,-215.7C1368.28,-206.88 1355.11,-196.03 1343.5,-186.47"/>
<polygon fill="grey" stroke="grey" stroke-width="2" points="1345.71,-183.76 1335.77,-180.1 1341.26,-189.16 1345.71,-183.76"/>
</g>
<!-- 33&#45;&gt;32 -->
<g id="edge57" class="edge">
<title>33&#45;&gt;32</title>
<path fill="none" stroke="grey" stroke-width="2" d="M1403.39,-287.89C1402.87,-279.84 1402.3,-270.88 1401.77,-262.66"/>
<polygon fill="grey" stroke="grey" stroke-width="2" points="1405.25,-262.17 1401.12,-252.41 1398.26,-262.61 1405.25,-262.17"/>
</g>
</g>
</svg>
